<svg width="44" height="44" viewBox="0 0 44 44" fill="none" xmlns="http://www.w3.org/2000/svg">
<rect width="44" height="44" fill="white"/>
<ellipse cx="21.8303" cy="21.8312" rx="21.3811" ry="21.3811" fill="white"/>
<circle cx="21.9984" cy="22" r="17.6" fill="#111111"/>
<path d="M22.0013 3.66663C11.8764 3.66663 3.66797 11.8747 3.66797 22C3.66797 32.1252 11.8764 40.3333 22.0013 40.3333C32.1262 40.3333 40.3346 32.1252 40.3346 22C40.3346 11.8747 32.1262 3.66663 22.0013 3.66663ZM31.3009 23.9828C32.1554 24.8174 33.0594 25.6029 33.8265 26.5237C34.1664 26.9311 34.4867 27.3524 34.7305 27.8261C35.0786 28.5017 34.7643 29.2425 34.1596 29.2827L30.4037 29.2819C29.4337 29.3622 28.6617 28.9709 28.0109 28.3078C27.4914 27.7792 27.0093 27.2147 26.509 26.6682C26.3045 26.4438 26.0892 26.2327 25.8326 26.0665C25.3206 25.7334 24.8757 25.8354 24.5824 26.3703C24.2835 26.9146 24.2152 27.5178 24.1867 28.1236C24.1458 29.0092 23.8787 29.2406 22.9901 29.2823C21.0913 29.3712 19.2897 29.0831 17.6152 28.1258C16.138 27.2815 14.9947 26.0897 13.9984 24.7405C12.0584 22.1102 10.5726 19.2234 9.23755 16.2537C8.93709 15.5849 9.1569 15.227 9.89474 15.2132C11.1206 15.1895 12.3464 15.1925 13.5723 15.212C14.0712 15.2199 14.4013 15.5054 14.5929 15.9761C15.2554 17.606 16.0675 19.1567 17.0852 20.5948C17.3564 20.9778 17.6332 21.3597 18.0274 21.6301C18.4625 21.9287 18.7941 21.83 18.9993 21.3443C19.1306 21.0356 19.1873 20.7055 19.2158 20.3746C19.3133 19.2414 19.3249 18.1086 19.1561 16.9799C19.0511 16.2736 18.6539 15.8175 17.9498 15.6839C17.5912 15.616 17.6437 15.4832 17.8181 15.2784C18.1208 14.9243 18.4044 14.7053 18.9712 14.7053L23.2148 14.7045C23.8836 14.8358 24.0336 15.1359 24.1244 15.8096L24.1282 20.5254C24.1203 20.7861 24.2591 21.5588 24.7272 21.7295C25.1023 21.8533 25.3499 21.5525 25.5742 21.315C26.5919 20.2351 27.3169 18.9605 27.9662 17.6412C28.2528 17.0594 28.5 16.4574 28.7401 15.8542C28.9186 15.4082 29.1962 15.1888 29.6996 15.1963L33.786 15.2012C33.9064 15.2012 34.0287 15.2023 34.148 15.2229C34.8367 15.3407 35.0254 15.637 34.8123 16.3088C34.477 17.3644 33.8254 18.2436 33.1885 19.1251C32.5058 20.0689 31.7777 20.9797 31.1018 21.9276C30.4806 22.7941 30.5297 23.2303 31.3009 23.9828Z" fill="white"/>
</svg>
