<svg width="44" height="44" viewBox="0 0 44 44" fill="none" xmlns="http://www.w3.org/2000/svg">
<rect width="44" height="44" fill="#1559A3"/>
<path d="M22 44C34.1503 44 44 34.1503 44 22C44 9.84974 34.1503 0 22 0C9.84974 0 0 9.84974 0 22C0 34.1503 9.84974 44 22 44Z" fill="#1559A3"/>
<path d="M21.3833 9.31987C14.6777 9.63887 9.38611 15.2234 9.40631 21.9364C9.4125 23.9811 9.90612 25.911 10.777 27.6165L9.44008 34.106C9.36781 34.4571 9.6844 34.7645 10.0331 34.6818L16.3921 33.1753C18.0258 33.9893 19.8609 34.4592 21.8029 34.4888C28.6567 34.5936 34.3713 29.1517 34.5852 22.3004C34.814 14.9563 28.7528 8.96881 21.3833 9.31987ZM28.971 28.8697C27.1088 30.7319 24.6326 31.7575 21.9989 31.7575C20.4568 31.7575 18.9803 31.4115 17.6104 30.7292L16.7251 30.288L12.8261 31.2116L13.6467 27.2279L13.2106 26.3734C12.4994 24.9807 12.1388 23.4749 12.1388 21.8974C12.1388 19.2636 13.1644 16.7877 15.0266 14.9253C16.8722 13.0795 19.3887 12.0375 21.9991 12.0375C24.6325 12.0375 27.1087 13.0631 28.9709 14.9253C30.8331 16.7875 31.8588 19.2637 31.8588 21.8972C31.8589 24.5076 30.8167 27.024 28.971 28.8697Z" fill="white"/>
<path d="M28.1122 24.6282L25.673 23.9279C25.3525 23.836 25.007 23.927 24.7734 24.1651L24.1768 24.7727C23.9253 25.0291 23.5438 25.1113 23.2109 24.9767C22.057 24.5097 19.6297 22.3515 19.0102 21.2723C18.8311 20.9608 18.8607 20.5717 19.0804 20.2872L19.601 19.6136C19.805 19.3497 19.848 18.9951 19.7131 18.69L18.6869 16.369C18.4412 15.8132 17.7308 15.6513 17.2667 16.0438C16.5859 16.6197 15.7782 17.4944 15.6802 18.4638C15.507 20.1729 16.24 22.3271 19.0113 24.9139C22.213 27.9026 24.7772 28.2971 26.4468 27.8928C27.3938 27.6636 28.1505 26.7442 28.6278 25.9913C28.9536 25.4777 28.6962 24.796 28.1122 24.6282Z" fill="white"/>
</svg>
