<svg width="41" height="41" viewBox="0 0 41 41" fill="none" xmlns="http://www.w3.org/2000/svg">
<g clip-path="url(#clip0_2232_1887)">
<path fill-rule="evenodd" clip-rule="evenodd" d="M19.6431 36.3086H29.6023L31.2622 37.0135L29.6023 37.6354H19.6431L17.9141 36.972L19.6431 36.3086Z" fill="#2D2D2D"/>
<path fill-rule="evenodd" clip-rule="evenodd" d="M13.1267 26.6215C13.2654 26.6631 13.3696 26.778 13.3977 26.92L14.8262 34.1373C14.8769 34.3935 14.667 34.6264 14.4069 34.6025L7.69222 33.9869L0.98693 32.8001C0.800171 32.767 0.664062 32.6047 0.664062 32.4151V23.4004C0.664062 23.1384 0.91673 22.9505 1.16766 23.0259L13.1267 26.6215Z" fill="#0385D0"/>
<path fill-rule="evenodd" clip-rule="evenodd" d="M18.6166 29.6744V27.6841H31.0972V29.6744L36.3217 30.3378L35.1607 34.9817H13.2677L12.7285 30.5864L18.6166 29.6744Z" fill="#C2D5E8"/>
<path fill-rule="evenodd" clip-rule="evenodd" d="M17.9531 26.1915L19.8605 23.7036H29.8533L31.8436 26.1915V27.3524H17.9531V26.1915Z" fill="#0094DE"/>
<path d="M31.846 26.3574H17.9141V27.6843H31.846V26.3574Z" fill="#0C6EA7"/>
<path fill-rule="evenodd" clip-rule="evenodd" d="M13.2695 32.3281H34.4991V36.3087H14.2173L13.2695 32.3281Z" fill="#0385D0"/>
<path fill-rule="evenodd" clip-rule="evenodd" d="M17.248 31.6646H34.4971V34.4426H17.248V32.9914V31.6646Z" fill="#0094DE"/>
<path fill-rule="evenodd" clip-rule="evenodd" d="M0.984766 28.9037C0.799012 28.8697 0.664062 28.7079 0.664062 28.519V20.5301C0.664062 20.2839 0.888923 20.0989 1.13053 20.1464L10.6529 22.0192C10.7358 22.0355 10.8112 22.0782 10.8678 22.141L18.0664 30.1219C18.2395 30.3138 18.1821 30.6179 17.9509 30.7335L16.2054 31.6062C16.1297 31.6441 16.0436 31.6564 15.9603 31.6411L0.984766 28.9037Z" fill="#0094DE"/>
<path d="M2.6537 7.64867V3.79567C2.6537 3.07132 2.05965 2.47412 1.32685 2.47412C0.588942 2.47412 0 3.0658 0 3.79567V8.45024C0 8.65724 0.0485135 8.85385 0.134915 9.02912L0.0846639 9.06847L18.0783 31.3331L20.3457 29.8803L2.6537 7.64867Z" fill="#D1DBE5"/>
<path d="M2.6537 7.64867V3.79567C2.6537 3.07132 2.05965 2.47412 1.32685 2.47412C0.588942 2.47412 0 3.0658 0 3.79567V8.45024C0 8.65724 0.0485135 8.85385 0.134915 9.02912L0.0846639 9.06847L18.0783 31.3331L20.3457 29.8803L2.6537 7.64867Z" fill="#D8D8D8"/>
<path d="M35.8246 29.6743H15.9219V31.6646H35.8246V29.6743Z" fill="#ACACAC"/>
<circle cx="11.8071" cy="32.3691" r="4.65462" fill="white" stroke="#2D2D2D" stroke-width="1.21466"/>
<ellipse cx="11.83" cy="32.4843" rx="1.51164" ry="1.51164" fill="#0385D0"/>
<ellipse cx="11.8533" cy="32.5062" rx="0.697076" ry="0.697075" fill="#2D2D2D"/>
<circle cx="36.5312" cy="33.4536" r="3.40745" fill="white" stroke="#2D2D2D" stroke-width="0.889199"/>
<ellipse cx="36.55" cy="33.5378" rx="1.1066" ry="1.1066" fill="#0385D0"/>
<ellipse cx="36.563" cy="33.5538" rx="0.510299" ry="0.510298" fill="#2D2D2D"/>
</g>
<defs>
<clipPath id="clip0_2232_1887">
<rect width="40.6654" height="40.6654" fill="white" transform="translate(0 0.027832)"/>
</clipPath>
</defs>
</svg>
