<svg width="41" height="42" viewBox="0 0 41 42" fill="none" xmlns="http://www.w3.org/2000/svg">
<g clip-path="url(#clip0_2232_1932)">
<path fill-rule="evenodd" clip-rule="evenodd" d="M1 20.9995H12L20.335 26.6662L19.2131 35.6461H15.9408L9.5 29.9995L0 27.0828L1 20.9995Z" fill="#0C6EA7"/>
<path fill-rule="evenodd" clip-rule="evenodd" d="M1 20.9995H11.5L11.62 22.2105L15.9775 26.9311H0L1 20.9995Z" fill="#0094DE"/>
<path fill-rule="evenodd" clip-rule="evenodd" d="M37.0379 35.6461H26.1441L19.154 30.7432L17.1114 29.0191L11.6191 26.2049L8.5 18.4995L20.3341 25.4786H27.2335L32.6804 30.5624L40.306 32.7411L37.0379 35.6461Z" fill="#0094DE"/>
<path d="M27.2334 25.479H20.334L25.4177 30.5628H32.6802L27.2334 25.479Z" fill="#0385D0"/>
<path fill-rule="evenodd" clip-rule="evenodd" d="M13.7988 25.479L26.044 32.7415H40.6701L37.6088 35.6465H15.9776V28.7471L13.7988 25.479Z" fill="#0C6EA7"/>
<path d="M15.2512 29.2364V31.5284V34.3844C15.2512 35.0761 15.739 35.6464 16.3406 35.6464C16.9465 35.6464 17.43 35.0813 17.43 34.3844V31.5284V28.6724C17.43 28.2495 17.2477 27.872 16.9686 27.6425L2.17875 11.0304V7.13213C2.17875 6.44041 1.69102 5.87012 1.08937 5.87012C0.483535 5.87012 0 6.43514 0 7.13213V11.577C0 11.958 0.147961 12.3022 0.381422 12.5345L15.2512 29.2364Z" fill="#D8D8D8"/>
<path fill-rule="evenodd" clip-rule="evenodd" d="M0.502617 17.4649C0.562646 17.21 0.819451 17.0046 1.07984 17.0063L7.63276 17.0491C7.89152 17.0508 8.14517 17.2559 8.19998 17.5104L8.66053 19.6486L8.17212 21.7806C8.11432 22.033 7.85931 22.2362 7.59892 22.2345L1.04601 22.1917C0.787244 22.19 0.53363 21.9793 0.48142 21.7299L0.0187094 19.5202L0.502617 17.4649Z" fill="#5A5A5A"/>
<path fill-rule="evenodd" clip-rule="evenodd" d="M8.65939 19.6484L8.17099 21.7805C8.11318 22.0328 7.85818 22.236 7.59779 22.2343L1.04488 22.1915C0.786113 22.1898 0.532498 21.9791 0.480289 21.7298L0.0175781 19.52L8.65939 19.6484Z" fill="#2D2D2D"/>
</g>
<defs>
<clipPath id="clip0_2232_1932">
<rect width="40.67" height="40.67" fill="white" transform="translate(0 0.358887)"/>
</clipPath>
</defs>
</svg>
