<svg width="41" height="42" viewBox="0 0 41 42" fill="none" xmlns="http://www.w3.org/2000/svg">
<g clip-path="url(#clip0_2232_1866)">
<path d="M19.1898 16.2948L19.0084 16.5984C18.8441 16.8733 18.9338 17.2294 19.2088 17.3937L21.5077 18.7674C21.7827 18.9316 22.1387 18.8419 22.303 18.567L22.4844 18.2635C22.6487 17.9885 22.559 17.6324 22.284 17.4682L19.9851 16.0945C19.7101 15.9302 19.3541 16.0199 19.1898 16.2948Z" fill="#2D2D2D"/>
<path d="M21.1723 13.2081L20.5447 12.8331C20.2698 12.6688 19.9137 12.7585 19.7494 13.0335L16.4683 18.5246C16.304 18.7995 16.3937 19.1556 16.6687 19.3199L17.2963 19.6949C17.5712 19.8592 17.9273 19.7695 18.0916 19.4945L21.3727 14.0034C21.5369 13.7285 21.4472 13.3724 21.1723 13.2081Z" fill="#2D2D2D"/>
<path d="M13.296 19.5791H8.48808C6.89822 19.5791 5.60938 20.8931 5.60938 22.5139C5.60938 24.1348 6.89822 25.4487 8.48808 25.4487H13.296C14.8858 25.4487 16.1747 24.1348 16.1747 22.5139C16.1747 20.8931 14.8858 19.5791 13.296 19.5791Z" fill="#2D2D2D"/>
<path d="M8.72618 19.8268L7.2702 14.7492C6.78874 13.0701 5.30846 12.0215 3.9639 12.4071C2.61933 12.7926 1.91965 14.4663 2.40111 16.1454L3.8571 21.223C4.33856 22.902 5.81884 23.9506 7.1634 23.5651C8.50796 23.1795 9.20764 21.5058 8.72618 19.8268Z" fill="#2D2D2D"/>
<path fill-rule="evenodd" clip-rule="evenodd" d="M4.71484 22.5449H16.2619V29.8807L4.94486 30.243L4.71484 22.5449Z" fill="#2D2D2D"/>
<path d="M3.63609 18.1824L2.08594 18.686L4.85615 27.2119L6.4063 26.7082L3.63609 18.1824Z" fill="#0C6EA7"/>
<path d="M0.914062 24.8622C1.42214 23.4741 3.40057 21.9274 4.8788 21.9274H18.0691C19.6162 21.9274 20.8704 20.6732 20.8704 19.1261C20.8704 17.2828 22.6201 15.9419 24.4 16.4211L33.5248 18.8778C35.0627 19.2918 35.545 20.1665 36.1311 22.279L38.4798 32.4927C38.4795 34.4376 34.5527 36.0145 32.6079 36.0145H5.6081C3.6627 36.0145 2.08579 34.4372 2.08633 32.4918L2.08742 28.5883C2.08756 28.0724 2.96234 27.6394 2.67614 27.2101C2.21416 26.5171 2.08799 26.0362 0.914062 24.8622Z" fill="#0094DE"/>
<rect x="23.2188" y="23.1011" width="2.34785" height="3.52177" fill="#C2D5E8"/>
<rect x="26.7383" y="23.1011" width="2.34785" height="3.52177" fill="#C2D5E8"/>
<rect x="30.2617" y="23.1011" width="2.34784" height="3.52177" fill="#C2D5E8"/>
<path d="M38.7118 32.4927H9.12891V36.0144H36.7161L38.7118 32.4927Z" fill="#0C6EA7"/>
<path d="M8.3166 39.7741C12.1386 39.7741 15.237 36.6757 15.237 32.8537C15.237 29.0317 12.1386 25.9333 8.3166 25.9333C4.49458 25.9333 1.39623 29.0317 1.39623 32.8537C1.39623 36.6757 4.49458 39.7741 8.3166 39.7741Z" fill="white" stroke="#2D2D2D" stroke-width="1.37942"/>
<ellipse cx="8.35641" cy="33.0312" rx="2.32712" ry="2.32711" fill="#0385D0"/>
<ellipse cx="8.39148" cy="33.0648" rx="1.07312" ry="1.07312" fill="#2D2D2D"/>
<path d="M33.7827 40.1208C37.0231 40.1208 39.6501 37.4938 39.6501 34.2534C39.6501 31.0129 37.0231 28.3859 33.7827 28.3859C30.5422 28.3859 27.9152 31.0129 27.9152 34.2534C27.9152 37.4938 30.5422 40.1208 33.7827 40.1208Z" fill="white" stroke="#2D2D2D" stroke-width="1.16954"/>
<ellipse cx="33.8148" cy="34.4037" rx="1.97304" ry="1.97304" fill="#0385D0"/>
<ellipse cx="33.8434" cy="34.4323" rx="0.909845" ry="0.909847" fill="#2D2D2D"/>
<path d="M1.63973 22.3847C0.969419 22.7511 0.332612 23.1758 -0.261719 23.6554L1.35568 25.4175C2.6419 24.7797 4.20969 23.159 7.36488 22.9563C9.61886 22.8114 11.8623 23.3545 13.7598 24.5043C15.6573 25.6542 17.1069 27.3489 17.8918 29.3353C19.0235 32.1989 18.5443 34.3791 17.963 36.0142L20.345 36.0141C20.567 35.3095 20.7183 34.7179 20.7991 33.9948C21.0032 32.1704 20.7591 30.3162 20.0722 28.5778C19.1128 26.15 17.341 24.0786 15.0219 22.6733C12.7028 21.268 9.96077 20.6042 7.2059 20.7812C5.23331 20.908 3.32999 21.4609 1.63973 22.3847Z" fill="#0C6EA7"/>
</g>
<defs>
<clipPath id="clip0_2232_1866">
<rect width="40.67" height="40.67" fill="white" transform="translate(0 0.35791)"/>
</clipPath>
</defs>
</svg>
