<svg width="41" height="42" viewBox="0 0 41 42" fill="none" xmlns="http://www.w3.org/2000/svg">
<path d="M9.41573 0.804841C9.26888 0.741832 9.10708 0.707031 8.93711 0.707031L4.66281 0.707031C3.99763 0.707031 3.44922 1.25292 3.44922 1.9263C3.44922 2.60438 3.99256 3.14558 4.66281 3.14558H8.45451L24.7678 18.9098L26.4606 17.1556L9.47584 0.742553L9.41573 0.804841Z" fill="#D8D8D8"/>
<path fill-rule="evenodd" clip-rule="evenodd" d="M19.5093 11.7862C19.6393 11.4749 19.9968 11.326 20.3047 11.4523L27.9248 14.5783C28.2341 14.7052 28.3921 15.0629 28.2778 15.3771L24.9412 24.5506C24.8269 24.8649 24.477 25.0173 24.1693 24.8947L16.0456 21.6596C15.7336 21.5353 15.5861 21.1821 15.716 20.871L19.5093 11.7862Z" fill="#0094DE"/>
<path fill-rule="evenodd" clip-rule="evenodd" d="M21.0304 15.5994C21.1624 15.2864 21.5319 15.1258 21.8416 15.2357L32.7299 19.0978C33.0459 19.2099 33.4307 19.541 33.5767 19.8441C33.5767 19.8441 36.9575 25.5495 30.5606 27.3784C24.1638 29.2073 18.6279 22.6937 18.6279 22.6937C18.4047 22.4514 18.3322 21.9979 18.4628 21.6882L21.0304 15.5994Z" fill="#D8D8D8"/>
<path fill-rule="evenodd" clip-rule="evenodd" d="M24.4688 12.8999L30.3224 15.8715L27.5225 22.8061L22.7583 20.8799L24.4688 12.8999Z" fill="#0C6EA7"/>
<path fill-rule="evenodd" clip-rule="evenodd" d="M26.1088 9.9747C26.3031 9.69575 26.7109 9.57084 27.0241 9.69747L34.9059 12.884C35.2171 13.0099 35.4249 13.3787 35.3693 13.712L34.9025 16.5126L33.2942 18.8517C33.1038 19.1286 32.6992 19.2518 32.386 19.1251L24.5042 15.9386C24.193 15.8127 23.9879 15.4371 24.0442 15.1112L24.5426 12.2233L26.1088 9.9747Z" fill="#0094DE"/>
<path fill-rule="evenodd" clip-rule="evenodd" d="M34.9028 16.5124L33.2945 18.8515C33.1042 19.1284 32.6995 19.2516 32.3863 19.125L24.5046 15.9384C24.1933 15.8126 23.9883 15.4369 24.0445 15.111L24.543 12.2231L34.9028 16.5124Z" fill="#0C6EA7"/>
<path d="M25.3625 25.1597C27.4674 26.0107 29.8633 24.993 30.7138 22.8866C31.5643 20.7802 30.5473 18.3827 28.4423 17.5317C26.3373 16.6806 23.9414 17.6983 23.0909 19.8047C22.2405 21.9111 23.2575 24.3086 25.3625 25.1597Z" fill="#0C6EA7"/>
<path d="M25.9226 23.7728C27.2621 24.3143 28.7868 23.6667 29.328 22.3263C29.8692 20.9858 29.222 19.4602 27.8825 18.9186C26.5429 18.377 25.0183 19.0246 24.4771 20.3651C23.9359 21.7055 24.583 23.2312 25.9226 23.7728Z" fill="#0094DE"/>
<path d="M26.4827 22.3859C27.0568 22.618 27.7102 22.3404 27.9422 21.766C28.1741 21.1915 27.8968 20.5376 27.3227 20.3055C26.7486 20.0734 26.0952 20.351 25.8632 20.9254C25.6313 21.4999 25.9086 22.1538 26.4827 22.3859Z" fill="#0C6EA7"/>
<path fill-rule="evenodd" clip-rule="evenodd" d="M9.84603 25.113L15.634 20.9767L31.1692 27.7758L32.0831 33.3225L29.3416 33.9321L28.58 30.1219L15.634 24.7876L11.674 27.628L9.84603 25.113Z" fill="#0385D0"/>
<path d="M19.8624 38.6747C23.3675 38.6747 26.2081 35.8314 26.2081 32.3252C26.2081 28.8189 23.3675 25.9757 19.8624 25.9757C16.3573 25.9757 13.5167 28.8189 13.5167 32.3252C13.5167 35.8314 16.3573 38.6747 19.8624 38.6747Z" fill="white" stroke="#2D2D2D" stroke-width="1.52526"/>
<ellipse cx="19.8997" cy="32.4841" rx="2.08526" ry="2.08666" fill="#0385D0"/>
<ellipse cx="19.9284" cy="32.5145" rx="0.961593" ry="0.962243" fill="#2D2D2D"/>
</svg>
