<svg width="41" height="42" viewBox="0 0 41 42" fill="none" xmlns="http://www.w3.org/2000/svg">
<g clip-path="url(#clip0_2232_1987)">
<path d="M24.9334 5.74268H16.6314C15.3809 5.74268 14.3672 6.75639 14.3672 8.00687V14.0447C14.3672 15.2952 15.3809 16.3089 16.6314 16.3089H24.9334C26.1839 16.3089 27.1976 15.2952 27.1976 14.0447V8.00687C27.1976 6.75639 26.1839 5.74268 24.9334 5.74268Z" stroke="#C2D5E8" stroke-width="2.95081"/>
<path d="M30.9706 12.9126H14.3666C12.6993 12.9126 11.3477 14.2642 11.3477 15.9315V28.7619C11.3477 30.4292 12.6993 31.7809 14.3666 31.7809H30.9706C32.638 31.7809 33.9896 30.4292 33.9896 28.7619V15.9315C33.9896 14.2642 32.638 12.9126 30.9706 12.9126Z" fill="#C2D5E8"/>
<path fill-rule="evenodd" clip-rule="evenodd" d="M6.82227 17.5427L8.64575 16.3091H12.2941V26.8753H8.64664L6.82227 25.6417V17.5427Z" fill="#C2D5E8"/>
<path fill-rule="evenodd" clip-rule="evenodd" d="M6.25586 19.0448L34.7469 18.29L34.279 23.1014H6.63322L6.25586 19.0448Z" fill="#0C6EA7"/>
<path d="M24.9358 24.6108H6.82227V31.4034H24.9358V24.6108Z" fill="#0C6EA7"/>
<path d="M33.9896 29.1392H11.3477V32.1581H33.9896V29.1392Z" fill="#D9D9D9"/>
<path fill-rule="evenodd" clip-rule="evenodd" d="M8.06737 9.70508H33.3002L33.5063 9.78943L33.0775 10.8372C33.5063 9.78943 33.506 9.7893 33.5063 9.78943L33.5091 9.79054L33.5125 9.79198L33.5217 9.79583L33.5489 9.8074C33.5708 9.81682 33.6 9.82971 33.6357 9.84598C33.7068 9.87844 33.8042 9.92483 33.9193 9.98465C34.1466 10.1028 34.4569 10.2806 34.7742 10.5155C35.3364 10.932 36.2553 11.7759 36.2553 13.0303V17.0511C36.2553 19.3182 34.7681 21.501 32.5456 22.8659C30.2867 24.2531 27.1779 24.8721 23.668 24.0117C20.3401 23.1958 15.9398 21.4649 12.4181 19.9636C10.647 19.2087 9.07979 18.5038 7.95527 17.9877C7.39283 17.7295 6.94068 17.5183 6.62862 17.3715C6.47257 17.298 6.35152 17.2407 6.26919 17.2015L6.17518 17.1567L6.14274 17.1412C6.1426 17.1411 6.14201 17.1408 6.6321 16.1203L6.14201 17.1408L5.5 16.8325V12.6007L8.06737 9.70508ZM7.76419 15.4033C8.05657 15.5404 8.44069 15.7192 8.89978 15.9299C10.0105 16.4397 11.5583 17.1358 13.306 17.8808C16.8217 19.3795 21.0742 21.0445 24.2071 21.8126C27.158 22.536 29.642 21.992 31.3607 20.9365C33.1158 19.8587 33.9911 18.319 33.9911 17.0511V13.0303C33.9911 12.9288 33.8871 12.6762 33.4265 12.335C33.2324 12.1912 33.0313 12.0749 32.8751 11.9937C32.8585 11.9851 32.8426 11.9769 32.8274 11.9693H9.08586L7.76419 13.4599V15.4033Z" fill="#0094DE"/>
<path d="M30.9723 14.0444H25.6891C24.8555 14.0444 24.1797 14.7202 24.1797 15.5539C24.1797 16.3875 24.8555 17.0634 25.6891 17.0634H30.9723C31.8059 17.0634 32.4817 16.3875 32.4817 15.5539C32.4817 14.7202 31.8059 14.0444 30.9723 14.0444Z" fill="#0C6EA7"/>
<path d="M29.4626 17.0634C30.2962 17.0634 30.972 16.3875 30.972 15.5539C30.972 14.7202 30.2962 14.0444 29.4626 14.0444C28.6289 14.0444 27.9531 14.7202 27.9531 15.5539C27.9531 16.3875 28.6289 17.0634 29.4626 17.0634Z" fill="#C2D5E8"/>
<path fill-rule="evenodd" clip-rule="evenodd" d="M10.5958 11.968C8.92852 11.968 7.5769 13.3196 7.5769 14.9869V28.3844C7.5769 30.0517 8.92852 31.4033 10.5958 31.4033H30.9735C32.6408 31.4033 33.9925 30.0517 33.9925 28.3844V14.9869C33.9925 13.3196 32.6408 11.968 30.9735 11.968H10.5958ZM1.53906 14.9869C1.53906 9.98503 5.59391 5.93018 10.5958 5.93018H30.9735C35.9755 5.93018 40.0303 9.98503 40.0303 14.9869V28.3844C40.0303 33.3863 35.9755 37.4411 30.9735 37.4411H10.5958C5.59391 37.4411 1.53906 33.3863 1.53906 28.3844V14.9869Z" fill="#0094DE"/>
<path d="M31.7256 34.4224H27.1973V37.4413H31.7256V34.4224Z" fill="#2D2D2D"/>
<path d="M40.7837 18.5732H38.5195V34.4226H40.7837V18.5732Z" fill="#C2D5E8"/>
<path d="M40.7834 18.5732H37.0098V20.8374H40.7834V18.5732Z" fill="#0C6EA7"/>
<path d="M6.76714 37.1519C9.97217 37.1519 12.5704 34.5537 12.5704 31.3487C12.5704 28.1436 9.97217 25.5455 6.76714 25.5455C3.56211 25.5455 0.963915 28.1436 0.963915 31.3487C0.963915 34.5537 3.56211 37.1519 6.76714 37.1519Z" fill="white" stroke="#2D2D2D" stroke-width="1.1503"/>
<ellipse cx="6.80031" cy="31.4976" rx="1.95265" ry="1.95265" fill="#0385D0"/>
<ellipse cx="6.82623" cy="31.5259" rx="0.900446" ry="0.900446" fill="#2D2D2D"/>
</g>
<defs>
<clipPath id="clip0_2232_1987">
<rect width="40.67" height="40.67" fill="white" transform="translate(0 0.359863)"/>
</clipPath>
</defs>
</svg>
