<svg width="41" height="42" viewBox="0 0 41 42" fill="none" xmlns="http://www.w3.org/2000/svg">
<rect width="7.35816" height="1.13926" transform="matrix(0.950659 0.310239 -0.310238 0.950659 32.0273 32.438)" fill="#2D2D2D"/>
<rect width="7.48996" height="0.864443" transform="matrix(0.780042 0.625727 -0.625728 0.780041 33.1621 30.0542)" fill="#2D2D2D"/>
<path d="M35.3894 19.6654L31.2439 18.2752C29.873 17.8155 28.3891 18.5542 27.9293 19.925C27.4696 21.2959 28.2083 22.7798 29.5791 23.2395L33.7247 24.6297C35.0955 25.0894 36.5795 24.3508 37.0392 22.98C37.4989 21.6091 36.7603 20.1251 35.3894 19.6654Z" fill="#2D2D2D"/>
<path d="M31.8668 19.4357L32.0784 14.6638C32.1484 13.0858 31.0341 11.7547 29.5897 11.6907C28.1452 11.6266 26.9175 12.8539 26.8476 14.4319L26.636 19.2038C26.566 20.7818 27.6803 22.1129 29.1247 22.1769C30.5692 22.241 31.7969 21.0137 31.8668 19.4357Z" fill="#2D2D2D"/>
<path fill-rule="evenodd" clip-rule="evenodd" d="M26.0098 19.6123L36.8462 23.2462L35.4808 27.3179L24.7928 23.9574L26.0098 19.6123Z" fill="#0C6EA7"/>
<path d="M26.7948 15.4582L25.3223 15.4443L25.2461 23.5434L26.7187 23.5572L26.7948 15.4582Z" fill="#0C6EA7"/>
<path d="M5.19531 13.9937L35.5439 23.8534L32.2595 34.1601L26.7853 32.4006L24.3637 28.8091L17.6422 26.6254L11.7355 24.7063L8.02974 28.1419L1.30825 25.9582L5.19531 13.9937Z" fill="#0094DE"/>
<path fill-rule="evenodd" clip-rule="evenodd" d="M4.72803 26.81L10.2589 21.977L26.9116 27.3902L28.4109 32.9946L25.6549 33.8977L24.4875 30.0614L10.6437 25.8909L6.86068 29.2084L4.72803 26.81Z" fill="#0385D0"/>
<path d="M18.3176 39.3359C21.6371 37.8847 23.1517 34.0174 21.7005 30.6979C20.2494 27.3784 16.382 25.8638 13.0625 27.315C9.74301 28.7662 8.22843 32.6335 9.6796 35.953C11.1308 39.2725 14.9981 40.7871 18.3176 39.3359Z" fill="white" stroke="#2D2D2D" stroke-width="1.58809"/>
<ellipse cx="15.7908" cy="33.4606" rx="2.15344" ry="2.15344" transform="rotate(-23.6133 15.7908 33.4606)" fill="#0385D0"/>
<ellipse rx="0.993032" ry="0.993027" transform="matrix(0.916271 -0.400558 0.400564 0.916269 15.8311 33.477)" fill="#2D2D2D"/>
</svg>
