<svg width="41" height="41" viewBox="0 0 41 41" fill="none" xmlns="http://www.w3.org/2000/svg">
<g clip-path="url(#clip0_2232_2006)">
<path fill-rule="evenodd" clip-rule="evenodd" d="M5.71692 10.7238C5.55927 10.8815 5.4707 11.0953 5.4707 11.3182V37.4658C5.4707 38.8819 6.61869 40.0299 8.0348 40.0299H31.7955C33.2116 40.0299 34.3596 38.8819 34.3596 37.4658V8.0641C34.3596 6.64799 33.2116 5.5 31.7955 5.5H11.289C11.066 5.5 10.8522 5.58856 10.6946 5.74621L5.71692 10.7238ZM12.2321 9.50684L9.04931 12.6896C8.89166 12.8473 8.80309 13.0611 8.80309 13.284V18.2725C8.80309 19.031 9.72845 19.4016 10.252 18.8527L18.0461 10.6815C18.5565 10.1464 18.1772 9.26063 17.4378 9.26063H12.8265C12.6036 9.26063 12.3897 9.34919 12.2321 9.50684Z" fill="#0385D0"/>
<path d="M5.55664 21.543C5.55664 21.1197 5.7163 20.712 6.00373 20.4013L19.2893 6.03956C19.6075 5.69557 20.0549 5.5 20.5235 5.5H27.4651C28.3936 5.5 29.1464 6.25272 29.1464 7.18124V38.3486C29.1464 39.2772 28.3936 40.0299 27.4651 40.0299H7.23788C6.30936 40.0299 5.55664 39.2772 5.55664 38.3486V21.543Z" fill="#0094DE"/>
<path d="M12.9062 21.9673C12.9062 21.765 12.9792 21.5696 13.1116 21.4167L22.6548 10.4053C22.8145 10.2211 23.0463 10.1152 23.2901 10.1152H24.5443C25.0085 10.1152 25.3849 10.4916 25.3849 10.9559V35.2575C25.3849 35.7218 25.0085 36.0981 24.5442 36.0981H13.7469C13.2826 36.0981 12.9062 35.7218 12.9062 35.2575V21.9673Z" fill="white"/>
<rect x="20.9395" y="0.0297852" width="10.9402" height="4.10256" rx="0.504372" fill="#2D2D2D"/>
<rect x="22.3086" y="4.13232" width="8.20512" height="1.36752" fill="#0385D0"/>
<path d="M22.3092 27.1291C22.3092 28.8727 20.8933 30.2862 19.1468 30.2862C17.4002 30.2862 15.9844 28.8727 15.9844 27.1291C15.9844 25.7298 17.0235 24.0451 18.2346 22.7683C18.7462 22.2288 19.5822 22.1855 20.104 22.7153C21.2956 23.925 22.3092 25.7471 22.3092 27.1291Z" fill="#C2D5E8"/>
<rect x="18.3613" y="23.8525" width="1.13293" height="2.71902" rx="0.566463" transform="rotate(28.1641 18.3613 23.8525)" fill="white"/>
</g>
<defs>
<clipPath id="clip0_2232_2006">
<rect width="40.67" height="40.67" fill="white" transform="translate(0 0.0297852)"/>
</clipPath>
</defs>
</svg>
