<svg width="44" height="44" viewBox="0 0 44 44" fill="none" xmlns="http://www.w3.org/2000/svg">
<rect width="44" height="44" fill="#1559A3"/>
<path d="M22 44C34.1503 44 44 34.1503 44 22C44 9.84974 34.1503 0 22 0C9.84974 0 0 9.84974 0 22C0 34.1503 9.84974 44 22 44Z" fill="#1559A3"/>
<path d="M33.6377 15.462L33.6305 15.4329C33.0426 13.0565 30.3925 10.5066 27.9588 9.97609L27.9313 9.97042C23.9949 9.2195 20.0035 9.2195 16.0679 9.97042L16.0397 9.97609C13.6068 10.5066 10.9565 13.0567 10.368 15.4329L10.3614 15.462C9.63473 18.7806 9.63473 22.1463 10.3614 25.4649L10.368 25.494C10.9315 27.7689 13.3843 30.2018 15.7272 30.8708V33.5236C15.7272 34.4837 16.8972 34.9553 17.5626 34.2624L20.2502 31.4686C20.8333 31.5012 21.4165 31.5194 21.9996 31.5194C23.9811 31.5194 25.9635 31.332 27.9313 30.9566L27.9587 30.9509C30.3924 30.4204 33.0426 27.8703 33.6304 25.4941L33.6376 25.465C34.3643 22.1463 34.3643 18.7808 33.6377 15.462ZM31.5106 24.9838C31.1182 26.5342 29.106 28.4616 27.5072 28.8177C25.4142 29.2158 23.3046 29.3858 21.197 29.3275C21.1551 29.3263 21.1148 29.3426 21.0856 29.3727C20.7865 29.6797 19.1233 31.3872 19.1233 31.3872L17.036 33.5295C16.8834 33.6887 16.6153 33.5803 16.6153 33.3607V28.9662C16.6153 28.8936 16.5634 28.832 16.4921 28.8179C16.4917 28.8177 16.4913 28.8177 16.4909 28.8176C14.8921 28.4615 12.8807 26.5341 12.4875 24.9837C11.8334 21.984 11.8334 18.943 12.4875 15.9432C12.8807 14.3928 14.8921 12.4654 16.4909 12.1093C20.1464 11.4141 23.8527 11.4141 27.5073 12.1093C29.1069 12.4654 31.1182 14.3928 31.5107 15.9432C32.1655 18.9431 32.1655 21.984 31.5106 24.9838Z" fill="white"/>
<path d="M25.4772 27.0124C25.2314 26.9377 24.9972 26.8876 24.7795 26.7975C22.5253 25.8622 20.4508 24.6557 18.8076 22.8062C17.8731 21.7545 17.1417 20.5671 16.5234 19.3105C16.2302 18.7146 15.9832 18.0955 15.7313 17.4801C15.5016 16.9191 15.8399 16.3396 16.196 15.9168C16.5302 15.52 16.9604 15.2165 17.4261 14.9926C17.7896 14.818 18.1482 14.9187 18.4137 15.2268C18.9876 15.893 19.5149 16.5932 19.9417 17.3654C20.2042 17.8404 20.1322 18.421 19.6564 18.7442C19.5407 18.8227 19.4354 18.915 19.3277 19.0037C19.2331 19.0815 19.1443 19.16 19.0795 19.2653C18.9611 19.4579 18.9555 19.6852 19.0316 19.8946C19.6183 21.5069 20.6072 22.7607 22.2301 23.4361C22.4898 23.5441 22.7506 23.6699 23.0498 23.6351C23.5508 23.5765 23.7131 23.0269 24.0642 22.7398C24.4074 22.4592 24.846 22.4555 25.2156 22.6894C25.5854 22.9235 25.9437 23.1746 26.3 23.4286C26.6498 23.6778 26.9979 23.9214 27.3205 24.2056C27.6307 24.4788 27.7375 24.8372 27.5628 25.2078C27.2431 25.8868 26.7778 26.4515 26.1067 26.8121C25.9172 26.9137 25.6908 26.9466 25.4772 27.0124C25.2314 26.9377 25.6908 26.9466 25.4772 27.0124Z" fill="white"/>
<path d="M22.0079 14.2165C24.9564 14.2992 27.3782 16.2559 27.8971 19.1709C27.9856 19.6676 28.017 20.1753 28.0564 20.6795C28.073 20.8915 27.9528 21.093 27.7241 21.0958C27.4877 21.0986 27.3814 20.9008 27.366 20.689C27.3356 20.2694 27.3146 19.8479 27.2567 19.432C26.9516 17.2355 25.2002 15.4183 23.0139 15.0284C22.6849 14.9697 22.3483 14.9544 22.015 14.9194C21.8043 14.8973 21.5285 14.8846 21.4818 14.6226C21.4427 14.4031 21.628 14.2283 21.8371 14.217C21.8937 14.2137 21.9509 14.2163 22.0079 14.2165C24.9565 14.2992 21.9509 14.2163 22.0079 14.2165Z" fill="white"/>
<path d="M26.4864 20.0248C26.4815 20.0617 26.4791 20.1482 26.4574 20.2297C26.3792 20.5257 25.9303 20.5627 25.827 20.2641C25.7964 20.1755 25.7918 20.0746 25.7916 19.9792C25.7906 19.3548 25.6549 18.7309 25.34 18.1875C25.0162 17.629 24.5216 17.1597 23.9416 16.8755C23.5908 16.7038 23.2115 16.597 22.8271 16.5335C22.659 16.5056 22.4892 16.4888 22.3204 16.4653C22.1157 16.4369 22.0064 16.3065 22.0162 16.1049C22.0253 15.916 22.1634 15.78 22.3693 15.7917C23.0458 15.8301 23.6995 15.9765 24.3011 16.295C25.5244 16.9429 26.2232 17.9653 26.4272 19.3308C26.4364 19.3928 26.4512 19.454 26.4559 19.516C26.4675 19.6691 26.4748 19.8225 26.4864 20.0248C26.4815 20.0615 26.4748 19.8225 26.4864 20.0248Z" fill="white"/>
<path d="M24.6538 19.9535C24.4072 19.958 24.2752 19.8213 24.2496 19.5953C24.232 19.4377 24.2179 19.2779 24.1803 19.1244C24.1062 18.8221 23.9456 18.5422 23.6914 18.357C23.5714 18.2696 23.4354 18.2059 23.293 18.1646C23.1121 18.1123 22.924 18.1267 22.7437 18.0826C22.5476 18.0345 22.4392 17.8757 22.47 17.6919C22.4981 17.5245 22.6608 17.3939 22.8438 17.4072C23.9869 17.4897 24.8039 18.0807 24.9205 19.4265C24.9289 19.5214 24.9385 19.6217 24.9175 19.7127C24.8812 19.868 24.766 19.9459 24.6538 19.9535C24.4071 19.9579 24.766 19.9459 24.6538 19.9535Z" fill="white"/>
<path d="M25.4769 27.0127C25.6905 26.9469 25.2311 26.938 25.4769 27.0127V27.0127Z" fill="white"/>
<path d="M26.4869 20.0252C26.4752 19.8229 26.482 20.0619 26.4869 20.0252V20.0252Z" fill="white"/>
<path d="M24.6526 19.9538C24.6565 19.9536 24.6602 19.9516 24.6639 19.9512C24.6535 19.9512 24.6375 19.9514 24.6211 19.952C24.6317 19.9523 24.6415 19.9539 24.6526 19.9538Z" fill="white"/>
<path d="M24.655 19.9535C24.6439 19.9536 24.6341 19.952 24.6234 19.9517C24.57 19.9531 24.5149 19.956 24.655 19.9535Z" fill="white"/>
<path d="M24.6636 19.9512C24.6597 19.9516 24.656 19.9536 24.6523 19.9538C24.6812 19.9519 24.6787 19.9512 24.6636 19.9512Z" fill="white"/>
<path d="M22.0121 14.2166C22.0096 14.2166 22.0072 14.2164 22.0047 14.2164C22.0023 14.2162 22.0054 14.2164 22.0121 14.2166Z" fill="white"/>
<path d="M22.0078 14.2163C22.0103 14.2163 22.0127 14.2166 22.0152 14.2166C22.1788 14.2224 24.8401 14.2957 22.0078 14.2163Z" fill="white"/>
</svg>
