<svg width="44" height="44" viewBox="0 0 44 44" fill="none" xmlns="http://www.w3.org/2000/svg">
<rect width="44" height="44" fill="#1559A3"/>
<ellipse cx="21.8303" cy="21.8313" rx="21.3811" ry="21.3811" fill="#1559A3"/>
<circle cx="21.9984" cy="21.9999" r="17.6" fill="white"/>
<path d="M22.0013 3.6665C11.8764 3.6665 3.66797 11.8746 3.66797 21.9998C3.66797 32.1251 11.8764 40.3332 22.0013 40.3332C32.1262 40.3332 40.3346 32.1251 40.3346 21.9998C40.3346 11.8746 32.1262 3.6665 22.0013 3.6665ZM31.3009 23.9827C32.1554 24.8173 33.0594 25.6027 33.8265 26.5236C34.1664 26.931 34.4867 27.3522 34.7305 27.826C35.0786 28.5016 34.7643 29.2424 34.1596 29.2825L30.4037 29.2818C29.4337 29.3621 28.6617 28.9708 28.0109 28.3076C27.4914 27.7791 27.0093 27.2146 26.509 26.668C26.3045 26.4437 26.0892 26.2325 25.8326 26.0664C25.3206 25.7333 24.8757 25.8353 24.5824 26.3702C24.2835 26.9145 24.2152 27.5177 24.1867 28.1235C24.1458 29.0091 23.8787 29.2405 22.9901 29.2822C21.0913 29.3711 19.2897 29.083 17.6152 28.1257C16.138 27.2813 14.9947 26.0896 13.9984 24.7404C12.0584 22.1101 10.5726 19.2233 9.23755 16.2536C8.93709 15.5848 9.1569 15.2269 9.89474 15.213C11.1206 15.1894 12.3464 15.1924 13.5723 15.2119C14.0712 15.2198 14.4013 15.5052 14.5929 15.976C15.2554 17.6058 16.0675 19.1565 17.0852 20.5947C17.3564 20.9777 17.6332 21.3595 18.0274 21.63C18.4625 21.9286 18.7941 21.8299 18.9993 21.3442C19.1306 21.0354 19.1873 20.7053 19.2158 20.3745C19.3133 19.2413 19.3249 18.1085 19.1561 16.9798C19.0511 16.2735 18.6539 15.8173 17.9498 15.6838C17.5912 15.6159 17.6437 15.4831 17.8181 15.2783C18.1208 14.9242 18.4044 14.7051 18.9712 14.7051L23.2148 14.7044C23.8836 14.8357 24.0336 15.1358 24.1244 15.8095L24.1282 20.5253C24.1203 20.786 24.2591 21.5587 24.7272 21.7294C25.1023 21.8532 25.3499 21.5523 25.5742 21.3149C26.5919 20.235 27.3169 18.9603 27.9662 17.6411C28.2528 17.0593 28.5 16.4573 28.7401 15.8541C28.9186 15.4081 29.1962 15.1887 29.6996 15.1962L33.786 15.201C33.9064 15.201 34.0287 15.2022 34.148 15.2228C34.8367 15.3406 35.0254 15.6369 34.8123 16.3087C34.477 17.3643 33.8254 18.2435 33.1885 19.125C32.5058 20.0688 31.7777 20.9795 31.1018 21.9274C30.4806 22.7939 30.5297 23.2302 31.3009 23.9827Z" fill="#1559A3"/>
</svg>
