<svg width="44" height="44" viewBox="0 0 44 44" fill="none" xmlns="http://www.w3.org/2000/svg">
<rect width="44" height="44" fill="#1559A3"/>
<circle cx="22" cy="22" r="20" fill="white"/>
<path d="M12.7317 2.58863C14.9374 1.52391 17.5895 0.778041 19.9424 0.558736L19.9424 0.558735C20.1128 0.542846 20.5582 0.522245 20.9287 0.514316C20.9287 0.514316 20.9287 0.514315 20.9288 0.514315L21.0833 0.51103L21.0379 2.24115C20.8106 10.8845 19.8076 14.4591 17.1414 17.1271C15.0406 19.2291 12.2627 20.2945 7.31783 20.7563C5.7418 20.9035 2.58223 21.0556 1.07663 21.0569L0.525578 21.0574V21.0205C0.525578 19.6868 0.945962 17.2424 1.46452 15.6112C3.29894 9.84137 7.31086 5.20537 12.7317 2.58863ZM12.7317 2.58863L12.5143 2.13834L12.7317 2.58863ZM43.4711 21.0693L41.9619 21.026L41.9476 21.5258L41.9619 21.026C33.737 20.7905 30.1585 19.8247 27.5039 17.3654C26.3131 16.2621 25.2078 14.4651 24.6204 12.6438C23.8983 10.4047 23.5084 7.21542 23.3875 2.32807L23.3424 0.503221C24.5464 0.54458 26.9207 0.977984 28.3705 1.4395C34.1365 3.275 38.7696 7.28938 41.3848 12.7138C42.5792 15.1913 43.3008 17.9539 43.4449 20.5893L43.4711 21.0693ZM0.539007 23.3313L2.33942 23.3757L2.35174 22.8759L2.33943 23.3757C9.54952 23.5533 13.0178 24.285 15.6672 26.0489C18.2529 27.7705 19.7864 30.4604 20.4723 34.7008C20.7803 36.6053 21.0662 40.6319 21.0689 43.1375L21.0692 43.4744H21.0327C19.7001 43.4744 17.2573 43.0538 15.6272 42.5349C9.86123 40.6994 5.22812 36.685 2.61296 31.2606C1.46391 28.8773 0.751319 26.226 0.56089 23.6296L0.0622291 23.6662L0.560889 23.6296L0.539007 23.3313ZM43.4686 23.3527C43.4252 24.5497 42.991 26.9234 42.5332 28.3632C40.6988 34.133 36.6869 38.769 31.2661 41.3858L31.4835 41.8361L31.2661 41.3858C28.8844 42.5355 26.2348 43.2485 23.6404 43.4391L23.3445 43.4608L23.3884 41.8753C23.5605 35.6486 24.0932 32.5583 25.3625 29.9809C26.9214 26.8157 29.5294 24.9607 33.7706 24.1094L33.6722 23.6192L33.7706 24.1094C35.4966 23.7629 38.0336 23.5039 40.7291 23.4038C41.0769 23.3909 41.9507 23.3725 42.6697 23.3631L43.4686 23.3527Z" fill="#1559A3" stroke="#1559A3"/>
</svg>
