<svg width="44" height="44" viewBox="0 0 44 44" fill="none" xmlns="http://www.w3.org/2000/svg">
<g clip-path="url(#clip0_2238_555)">
<rect width="44" height="44" fill="#1559A3"/>
<path d="M22 44.0001C34.1503 44.0001 44.0001 34.1503 44.0001 22C44.0001 9.84976 34.1503 0 22 0C9.84976 0 0 9.84976 0 22C0 34.1503 9.84976 44.0001 22 44.0001Z" fill="#1559A3"/>
<path d="M29.8675 27.1011H28.448L28.455 26.2772C28.455 25.9106 28.7555 25.6116 29.1233 25.6116H29.2143C29.5822 25.6116 29.8841 25.9107 29.8841 26.2772L29.8675 27.1011ZM24.5458 25.3353C24.187 25.3353 23.8924 25.5774 23.8924 25.8734V29.8805C23.8924 30.1765 24.187 30.4172 24.5458 30.4172C24.9075 30.4172 25.202 30.1765 25.202 29.8805V25.873C25.202 25.5774 24.9075 25.3353 24.5458 25.3353ZM33.1864 23.0943V30.7167C33.1864 32.5454 31.601 34.0412 29.6622 34.0412H15.1727C13.2335 34.0412 11.6484 32.545 11.6484 30.7167V23.0943C11.6484 21.2656 13.2336 19.7691 15.1727 19.7691H29.6626C31.6009 19.7691 33.1864 21.266 33.1864 23.0943ZM16.1388 31.5446L16.1381 23.5151L17.9341 23.5157V22.3256L13.146 22.3183V23.4876L14.6409 23.4921V31.5442H16.1388V31.5446ZM21.5232 24.7114H20.0256V28.9989C20.0256 29.6193 20.0628 29.9295 20.0236 30.0386C19.9013 30.3711 19.3538 30.724 19.1409 30.0747C19.1047 29.9608 19.1367 29.6176 19.136 29.028L19.1291 24.711H17.6398L17.6454 28.9599C17.646 29.6113 17.6304 30.0969 17.6502 30.3179C17.6867 30.7076 17.6731 31.1623 18.0355 31.4212C18.7088 31.9072 20.0003 31.349 20.3234 30.6552L20.3206 31.5403L21.5229 31.5421V24.7114H21.5232ZM26.3141 29.621L26.3113 26.0523C26.3099 24.6919 25.2927 23.8773 23.9108 24.9779L23.917 22.3245L22.4208 22.3269L22.4135 31.4844L23.6436 31.4663L23.7555 30.8955C25.3281 32.3394 26.3168 31.3507 26.3141 29.621ZM31.0017 29.1483L29.8782 29.1542C29.8782 29.199 29.8762 29.2501 29.8754 29.3064V29.933C29.8754 30.2683 29.5986 30.5413 29.2619 30.5413H29.042C28.7047 30.5413 28.4279 30.2683 28.4279 29.933V29.8636V29.1737V28.2844H30.9993V27.3165C30.9993 26.6096 30.9809 25.9026 30.9225 25.4983C30.7388 24.2189 28.9434 24.016 28.0361 24.6708C27.7512 24.8755 27.5341 25.1492 27.407 25.5175C27.2795 25.8854 27.2163 26.3873 27.2163 27.0258V29.1536C27.2172 32.6906 31.5133 32.1906 31.0017 29.1483ZM25.2413 17.5956C25.3181 17.7838 25.4379 17.9356 25.6015 18.0509C25.7617 18.1635 25.9681 18.2208 26.2143 18.2208C26.43 18.2208 26.6214 18.1624 26.7875 18.0419C26.9538 17.9221 27.0942 17.7435 27.2081 17.5046L27.1796 18.0923H28.8488V10.9931H27.5347V16.5183C27.5347 16.8171 27.2877 17.062 26.9864 17.062C26.6873 17.062 26.4396 16.8171 26.4396 16.5183V10.9931H25.0684V15.7812C25.0684 16.3912 25.0792 16.798 25.0976 17.0043C25.1173 17.2092 25.1642 17.4055 25.2413 17.5956ZM20.1827 13.5861C20.1827 12.9045 20.2397 12.3726 20.3522 11.9891C20.4655 11.6066 20.6704 11.2992 20.9657 11.0678C21.261 10.8347 21.639 10.7184 22.0975 10.7184C22.4835 10.7184 22.8145 10.7944 23.0914 10.9428C23.3683 11.0922 23.5833 11.2857 23.7313 11.525C23.8834 11.7651 23.9855 12.012 24.0408 12.2646C24.097 12.5202 24.1242 12.9069 24.1242 13.4269V15.2226C24.1242 15.8812 24.0978 16.3654 24.0467 16.6733C23.9963 16.9818 23.8873 17.2676 23.7184 17.5355C23.5517 17.8009 23.3363 17.9992 23.0751 18.1257C22.8118 18.2539 22.5106 18.3164 22.1694 18.3164C21.7894 18.3164 21.4684 18.2639 21.2047 18.1538C20.94 18.0447 20.735 17.88 20.5894 17.6616C20.4415 17.4427 20.3383 17.1763 20.2761 16.8657C20.2129 16.5548 20.183 16.0883 20.183 15.4658V13.5861H20.1827ZM21.4895 16.4065C21.4895 16.808 21.7893 17.1363 22.1537 17.1363C22.5181 17.1363 22.8158 16.8084 22.8158 16.4065V12.6269C22.8158 12.2254 22.5181 11.8971 22.1537 11.8971C21.7893 11.8971 21.4895 12.225 21.4895 12.6269V16.4065ZM16.8696 18.3146H18.445L18.4464 12.8697L20.3074 8.20529H18.5847L17.5953 11.6705L16.5917 8.19629H14.8875L16.8672 12.8729L16.8696 18.3146Z" fill="white"/>
</g>
<defs>
<clipPath id="clip0_2238_555">
<rect width="44" height="44" fill="white"/>
</clipPath>
</defs>
</svg>
