<svg width="36" height="36" viewBox="0 0 36 36" fill="none" xmlns="http://www.w3.org/2000/svg">
<path d="M18 36C27.9412 36 36 27.9412 36 18C36 8.05875 27.9412 0 18 0C8.05875 0 0 8.05875 0 18C0 27.9412 8.05875 36 18 36Z" fill="#D6001C"/>
<path d="M10.2375 9.87671V15.9997C11.1698 14.8882 12.2873 14.3287 13.5833 14.3287C14.2508 14.3287 14.8485 14.4562 15.3848 14.709C15.9225 14.9602 16.3245 15.2827 16.596 15.6742C16.869 16.0695 17.0535 16.5022 17.1533 16.9792C17.2523 17.454 17.3018 18.1927 17.3018 19.1947V25.7415H14.4053V19.845C14.4053 18.675 14.3528 17.934 14.2425 17.619C14.1393 17.3104 13.9343 17.046 13.6613 16.869C13.3823 16.6807 13.035 16.5877 12.6158 16.5877C12.1358 16.5877 11.7053 16.7077 11.331 16.9462C10.9485 17.1862 10.674 17.5447 10.5 18.024C10.323 18.504 10.2345 19.2127 10.2375 20.151L10.2345 25.7415H7.3418V9.87671H10.2383H10.2375ZM21.6428 9.87671V15.9997C22.5758 14.8882 23.6925 14.3287 24.9878 14.3287C25.653 14.3287 26.2553 14.4562 26.7923 14.709C27.3278 14.9602 27.7298 15.2827 27.9998 15.6742C28.2723 16.0668 28.4619 16.5109 28.557 16.9792C28.6568 17.454 28.7063 18.1927 28.7063 19.1947V25.7415H25.8128V19.845C25.8128 18.675 25.758 17.934 25.6478 17.619C25.5445 17.31 25.3389 17.0454 25.065 16.869C24.789 16.6807 24.4388 16.5877 24.0195 16.5877C23.5403 16.5877 23.1098 16.7077 22.7348 16.9462C22.3575 17.1862 22.0815 17.5447 21.9053 18.024C21.7313 18.504 21.6428 19.2127 21.6428 20.151V25.7415H18.75V9.87671H21.6428Z" fill="#FEFEFE"/>
</svg>
