<svg width="44" height="44" viewBox="0 0 44 44" fill="none" xmlns="http://www.w3.org/2000/svg">
<rect width="44" height="44" fill="white"/>
<circle cx="21.957" cy="21.957" r="17.5742" fill="#111111"/>
<path fill-rule="evenodd" clip-rule="evenodd" d="M0 22C0 9.85159 9.85159 0 22 0C34.1484 0 44 9.85159 44 22C44 34.1484 34.1484 44 22 44C9.85159 44 0 34.1484 0 22ZM33.9695 30.2748C34.2817 29.4712 34.4955 28.5531 34.5566 27.2083C34.6184 25.8611 34.6328 25.4308 34.6328 22C34.6328 18.5692 34.6184 18.1389 34.5569 16.7917C34.4955 15.4469 34.282 14.5288 33.9695 13.7252C33.6526 12.8822 33.1551 12.1189 32.5126 11.4878C31.8815 10.8449 31.1178 10.3474 30.2748 10.0302C29.4712 9.71832 28.5531 9.50482 27.2083 9.44373C25.8611 9.38196 25.4308 9.36719 22 9.36719C18.5692 9.36719 18.1389 9.38196 16.7917 9.44339C15.4469 9.50482 14.5288 9.71832 13.7252 10.0305C12.8822 10.3477 12.1185 10.8449 11.4878 11.4878C10.8449 12.1185 10.3474 12.8822 10.0302 13.7252C9.71799 14.5288 9.50449 15.4469 9.44339 16.7917C9.38162 18.1389 9.36719 18.5692 9.36719 22C9.36719 25.4308 9.38162 25.8611 9.44373 27.2086C9.50482 28.5531 9.71866 29.4715 10.0309 30.2748C10.3481 31.1178 10.8452 31.8815 11.4878 32.5122C12.1189 33.1551 12.8822 33.6523 13.7255 33.9695C14.5288 34.2817 15.4473 34.4952 16.7917 34.5566C18.1392 34.618 18.5692 34.6328 22.0003 34.6328C25.4311 34.6328 25.8615 34.618 27.2086 34.5566C28.5531 34.4952 29.4715 34.2817 30.2748 33.9695C31.9718 33.3132 33.3132 31.9718 33.9695 30.2748ZM31.8492 14.5496C31.6468 14.0011 31.3239 13.5046 30.9043 13.0971C30.4967 12.6775 30.0006 12.3545 29.4517 12.1521C29.0066 11.9792 28.3379 11.7734 27.1062 11.7174C25.7739 11.6566 25.3744 11.6435 22.0013 11.6435C18.628 11.6435 18.2285 11.6563 16.8965 11.717C15.6648 11.7734 14.9958 11.9792 14.551 12.1521C14.0021 12.3545 13.5056 12.6775 13.0984 13.0971C12.6788 13.5046 12.3559 14.0008 12.1531 14.5496C11.9802 14.9948 11.7744 15.6638 11.7184 16.8954C11.6576 18.2275 11.6445 18.627 11.6445 22.0003C11.6445 25.3734 11.6576 25.7729 11.7184 27.1052C11.7744 28.3369 11.9802 29.0056 12.1531 29.4507C12.3559 29.9996 12.6785 30.4957 13.0981 30.9033C13.5056 31.3229 14.0018 31.6458 14.5506 31.8482C14.9958 32.0215 15.6648 32.2272 16.8965 32.2833C18.2285 32.3441 18.6276 32.3568 22.001 32.3568C25.3747 32.3568 25.7742 32.3441 27.1059 32.2833C28.3376 32.2272 29.0066 32.0215 29.4517 31.8482C30.5535 31.4232 31.4243 30.5525 31.8492 29.4507C32.0221 29.0056 32.2279 28.3369 32.2843 27.1052C32.3451 25.7729 32.3578 25.3734 32.3578 22.0003C32.3578 18.627 32.3451 18.2275 32.2843 16.8954C32.2282 15.6638 32.0225 14.9948 31.8492 14.5496ZM22.0013 28.4869C18.4185 28.4869 15.5141 25.5829 15.5141 22C15.5141 18.4171 18.4185 15.5131 22.0013 15.5131C25.5839 15.5131 28.4883 18.4171 28.4883 22C28.4883 25.5829 25.5839 28.4869 22.0013 28.4869ZM28.7448 16.7726C27.9075 16.7726 27.2288 16.0938 27.2288 15.2566C27.2288 14.4194 27.9075 13.7406 28.7448 13.7406C29.582 13.7406 30.2607 14.4194 30.2607 15.2566C30.2604 16.0938 29.582 16.7726 28.7448 16.7726ZM26.2109 22C26.2109 24.3257 24.3257 26.2109 22 26.2109C19.6743 26.2109 17.7891 24.3257 17.7891 22C17.7891 19.6743 19.6743 17.7891 22 17.7891C24.3257 17.7891 26.2109 19.6743 26.2109 22Z" fill="white"/>
</svg>
