<svg width="185" height="44" viewBox="0 0 185 44" fill="none" xmlns="http://www.w3.org/2000/svg">
<g clip-path="url(#clip0_2202_470)">
<path d="M97.4709 15.0858L91.7219 42.3688C91.6727 42.6231 91.7326 42.8852 91.8885 43.0982C92.0444 43.3112 92.2837 43.4578 92.5543 43.5059H125.505C128.873 43.5059 132.405 41.3045 133.048 38.2452L133.91 34.2956C134.549 31.3132 132.789 28.4926 129.554 28.4805H129.679C131.208 28.4914 132.694 28.002 133.88 27.0966C135.066 26.1911 135.879 24.9261 136.179 23.5192L137.011 19.3915C137.126 18.7173 137.084 18.0277 136.886 17.3704C136.689 16.7132 136.342 16.104 135.869 15.5851C135.396 15.0663 134.809 14.6501 134.147 14.3654C133.486 14.0807 132.766 13.9344 132.038 13.9365H98.933C98.5858 13.9417 98.251 14.0587 97.9848 14.268C97.7186 14.4772 97.5372 14.766 97.4709 15.0858ZM107.002 20.5732H124.517C124.655 20.5744 124.791 20.6041 124.916 20.6602C125.041 20.7163 125.151 20.7974 125.238 20.8977C125.326 20.9981 125.389 21.1152 125.423 21.241C125.457 21.3667 125.461 21.4979 125.435 21.6253L124.974 23.7337C124.9 24.099 124.693 24.4286 124.387 24.6652C124.081 24.9018 123.697 25.0304 123.301 25.0286H106.049L107.002 20.5732ZM104.635 31.8109H121.968C122.106 31.8122 122.242 31.8419 122.367 31.898C122.492 31.9541 122.602 32.0351 122.689 32.1355C122.777 32.2358 122.84 32.353 122.874 32.4787C122.908 32.6044 122.912 32.7356 122.887 32.8631L122.27 35.6351C122.182 35.981 121.975 36.2901 121.681 36.5146C121.387 36.7392 121.023 36.8667 120.644 36.8774H103.578L104.635 31.8109Z" fill="#1559A3"/>
<path d="M40.4333 42.4096L46.04 15.1266C46.0905 14.875 46.0326 14.6148 45.879 14.4031C45.7254 14.1915 45.4886 14.0456 45.2206 13.9976H36.8062C36.4571 13.9975 36.1187 14.1107 35.8483 14.3179C35.5779 14.5251 35.3922 14.8137 35.3226 15.1347L33.2481 25.207H14.3103L16.3891 15.1266C16.4396 14.875 16.3817 14.6148 16.2281 14.4031C16.0745 14.1915 15.8377 14.0456 15.5697 13.9976H7.16822C6.81728 13.9981 6.47744 14.113 6.20681 14.3226C5.93618 14.5322 5.75159 14.8236 5.6846 15.1468L0.00025418 42.3975C-0.0238023 42.5254 -0.0204969 42.6565 0.00997781 42.7832C0.0404525 42.9099 0.0974877 43.0297 0.177762 43.1355C0.258037 43.2413 0.359947 43.3311 0.477559 43.3996C0.595172 43.4681 0.726135 43.514 0.862826 43.5346H9.26858C9.61886 43.5318 9.95747 43.4161 10.2276 43.2068C10.4977 42.9975 10.683 42.7075 10.7522 42.3853L12.9992 31.8638H31.868L29.7115 42.3853C29.6623 42.6396 29.7222 42.9017 29.8781 43.1147C30.034 43.3277 30.2733 43.4743 30.5439 43.5224H38.9065C39.2598 43.5347 39.6063 43.4299 39.8855 43.2264C40.1647 43.0229 40.3586 42.7338 40.4333 42.4096Z" fill="#1559A3"/>
<path d="M142.229 20.4034L141.992 21.5527C141.97 21.6574 141.971 21.765 141.995 21.8693C142.018 21.9737 142.063 22.0727 142.127 22.1607C142.191 22.2486 142.273 22.3239 142.368 22.382C142.463 22.4402 142.57 22.4802 142.682 22.4996H151.739C151.941 22.5032 152.138 22.44 152.296 22.3209C152.454 22.2017 152.562 22.0344 152.601 21.8481C152.682 21.4867 152.892 21.162 153.196 20.9279C153.5 20.6938 153.881 20.5645 154.275 20.5612H170.564C170.733 20.5618 170.9 20.5982 171.051 20.6677C171.203 20.7371 171.336 20.8379 171.441 20.9624C171.545 21.0869 171.619 21.232 171.655 21.3867C171.691 21.5415 171.69 21.702 171.651 21.8562L170.965 25.0935H145.632C144.395 25.0938 143.196 25.4977 142.242 26.2359C141.287 26.9742 140.636 28.001 140.4 29.1403L138.727 37.1123C138.554 37.8847 138.566 38.6834 138.761 39.451C138.956 40.2187 139.33 40.9363 139.856 41.5524C140.381 42.1686 141.046 42.668 141.801 43.0149C142.557 43.3617 143.385 43.5475 144.226 43.5587H162.68C163.566 43.5125 164.434 43.3025 165.233 42.9406C166.033 42.5788 166.748 42.0724 167.338 41.4504L167.114 42.5025C167.047 42.7167 167.074 42.9469 167.188 43.1427C167.302 43.3384 167.494 43.4837 167.722 43.5466H167.752H176.507C176.844 43.534 177.166 43.4159 177.422 43.2112C177.679 43.0065 177.855 42.7271 177.922 42.4176L182.58 20.3913C182.749 19.6096 182.731 18.8026 182.528 18.0281C182.325 17.2537 181.941 16.531 181.405 15.9121C180.869 15.2931 180.194 14.7931 179.428 14.4481C178.661 14.1031 177.823 13.9215 176.973 13.9165H150.591C148.611 13.9179 146.694 14.5661 145.168 15.7499C143.642 16.9336 142.602 18.579 142.229 20.4034ZM168.723 35.615C168.643 35.9793 168.433 36.3068 168.127 36.5427C167.82 36.7785 167.437 36.9082 167.041 36.91H150.652C150.501 36.9092 150.352 36.8771 150.216 36.8159C150.08 36.7547 149.96 36.666 149.864 36.5561C149.769 36.4462 149.701 36.3179 149.665 36.1804C149.629 36.0429 149.626 35.8995 149.655 35.7607L150.238 33.0656C150.303 32.7171 150.496 32.4009 150.784 32.1719C151.071 31.9428 151.435 31.8152 151.812 31.8111H169.495L168.723 35.615Z" fill="#1559A3"/>
<path d="M86.4261 14.0745C86.0569 14.0051 85.6813 13.9698 85.3048 13.9692H58.6557C56.721 13.9696 54.8464 14.5999 53.352 15.7527C51.8575 16.9055 50.8358 18.5093 50.4612 20.2902L46.9031 37.1448C46.7166 37.9094 46.7146 38.7035 46.8973 39.469C47.0801 40.2344 47.443 40.9518 47.9594 41.5686C48.4758 42.1855 49.1327 42.6861 49.882 43.034C50.6313 43.3819 51.454 43.5681 52.2899 43.5791H79.5903C81.4716 43.4756 83.2632 42.79 84.6851 41.6295C86.1069 40.4689 87.0786 38.8989 87.4483 37.165L87.7071 35.9753C87.7283 35.8706 87.7272 35.763 87.704 35.6587C87.6808 35.5543 87.6358 35.4553 87.5717 35.3673C87.5076 35.2793 87.4256 35.2041 87.3304 35.1459C87.2352 35.0878 87.1287 35.0478 87.017 35.0284H77.8392C77.642 35.0313 77.4518 35.0976 77.3004 35.2161C77.1489 35.3347 77.0453 35.4984 77.0069 35.6799C76.9127 36.0225 76.7014 36.3267 76.4054 36.546C76.1094 36.7652 75.745 36.8874 75.368 36.8939H59.1689C58.9971 36.8983 58.8265 36.8655 58.6704 36.7982C58.5142 36.7309 58.3766 36.6308 58.2682 36.5056C58.1599 36.3805 58.0836 36.2336 58.0453 36.0764C58.0071 35.9192 58.0078 35.7559 58.0475 35.599L58.8541 31.795H87.2672C87.6044 31.784 87.9283 31.6684 88.1882 31.4663C88.448 31.2643 88.6292 30.9871 88.7033 30.6782L90.9503 20.4197C91.0979 19.7243 91.0979 19.0084 90.9503 18.313C90.8027 17.6176 90.5105 16.9563 90.0903 16.367C89.6701 15.7777 89.1302 15.2718 88.5014 14.8785C87.8727 14.4851 87.1675 14.2119 86.4261 14.0745ZM79.9612 21.8563L79.2409 25.0937H60.2255L60.9458 21.8563C61.0268 21.4935 61.238 21.1678 61.5441 20.9336C61.8503 20.6994 62.2328 20.5708 62.6278 20.5694H78.8398C79.0107 20.5654 79.1803 20.598 79.3357 20.6649C79.4911 20.7318 79.6281 20.8311 79.7363 20.9553C79.8445 21.0794 79.921 21.2252 79.96 21.3813C79.999 21.5375 79.9994 21.7 79.9612 21.8563Z" fill="#1559A3"/>
<path d="M19.5837 0.149414H16.293L13.3171 4.81528L12.5451 0.149414H9.41401L7.42578 8.58683H9.75041L11.0529 3.01449L12.006 8.58683H13.0368L16.6079 3.01449L15.3054 8.58683H17.6084L19.5837 0.202021V0.149414Z" fill="#1559A3"/>
<path d="M37.0291 4.22451C37.0711 3.6545 36.9811 3.08271 36.7655 2.54838C36.5498 2.01405 36.2135 1.5298 35.7797 1.12887C35.3458 0.727939 34.8247 0.419805 34.252 0.225604C33.6793 0.0314027 33.0686 -0.0442689 32.4618 0.00377955C31.781 -0.0107205 31.1039 0.100971 30.4693 0.332453C29.8346 0.563935 29.2548 0.910658 28.7632 1.35275C28.2716 1.79484 27.8778 2.32361 27.6044 2.90876C27.331 3.49391 27.1834 4.12393 27.1699 4.76272V4.90031C27.1767 5.41208 27.2908 5.91759 27.5058 6.38798C27.7208 6.85836 28.0324 7.2844 28.4229 7.64177C28.8134 7.99914 29.2751 8.28083 29.7816 8.47077C30.2881 8.6607 30.8295 8.75516 31.375 8.74874H31.6596C33.0062 8.79905 34.3207 8.3545 35.3234 7.50961C36.3261 6.66473 36.9381 5.48616 37.0291 4.22451ZM31.8882 6.80632C31.3246 6.82967 30.7738 6.64489 30.3537 6.29161C29.9337 5.93833 29.6779 5.44467 29.6412 4.9165V4.76272C29.6012 4.04903 29.8651 3.34967 30.3746 2.81845C30.8841 2.28724 31.5977 1.96767 32.3583 1.93002C32.9199 1.89905 33.4716 2.07859 33.8921 2.42918C34.3127 2.77976 34.5676 3.27269 34.601 3.7996C34.601 3.85626 34.601 3.91291 34.601 3.96957C34.6434 4.68048 34.3833 5.37812 33.8779 5.90924C33.3725 6.44037 32.6631 6.76156 31.9054 6.80227L31.8882 6.80632Z" fill="#1559A3"/>
<path d="M52.4862 2.04733L52.9261 0.202021V0.149414H45.5943L45.1328 2.04733H47.6601L46.1334 8.58683H48.458L49.9718 2.04733H52.4862Z" fill="#1559A3"/>
<path d="M69.6996 3.96141V3.81573C69.6758 2.78282 69.2159 1.80104 68.4209 1.08621C67.6259 0.371384 66.5609 -0.017978 65.4601 0.00371968H65.2099C64.5295 -0.0135051 63.8522 0.0953752 63.2166 0.324126C62.5811 0.552877 62 0.897004 61.5064 1.3368C61.0128 1.7766 60.6166 2.30343 60.3403 2.88713C60.0641 3.47082 59.9133 4.09992 59.8965 4.73838V4.90025C59.9032 5.41202 60.0174 5.91754 60.2324 6.38792C60.4473 6.8583 60.759 7.28434 61.1495 7.64171C61.5399 7.99908 62.0016 8.28077 62.5081 8.47071C63.0147 8.66065 63.5561 8.7551 64.1015 8.74868H64.3862C65.0701 8.76318 65.7504 8.65083 66.3879 8.41808C67.0255 8.18533 67.6078 7.83676 68.1015 7.39236C68.5951 6.94796 68.9904 6.41648 69.2647 5.82841C69.5389 5.24034 69.6867 4.60725 69.6996 3.96546V3.96141ZM64.6147 6.79412C64.0512 6.81747 63.5003 6.63269 63.0803 6.27941C62.6602 5.92613 62.4044 5.43247 62.3677 4.9043V4.76266C62.3272 4.05949 62.5816 3.36935 63.0765 2.83995C63.5714 2.31054 64.2675 1.98392 65.0158 1.92996C65.2957 1.91186 65.5765 1.94598 65.8422 2.03036C66.1079 2.11475 66.3531 2.24771 66.5636 2.42157C66.7742 2.59543 66.9459 2.80673 67.0689 3.04325C67.1919 3.27977 67.2637 3.53683 67.2801 3.79954V3.97355C67.3227 4.67986 67.0667 5.37343 66.5677 5.90376C66.0687 6.43409 65.367 6.75838 64.6147 6.80626V6.79412Z" fill="#1559A3"/>
<path d="M85.1999 2.04733L85.6484 0.149414H78.3079L77.8594 2.04733H80.3738L78.847 8.58683H81.1716L82.6984 2.04733H85.1999Z" fill="#1559A3"/>
<path d="M95.0669 6.68082L95.4033 5.26042H99.5781L100.027 3.37465H95.8518L96.1666 2.04733H100.411L100.872 0.149414H94.2906L92.3066 8.58683H98.8967L99.3452 6.68082H95.0669Z" fill="#1559A3"/>
<path d="M117.977 0.149414H115.104L112.849 2.67862L111.615 0.149414H109.01L111.05 4.13139L106.811 8.58683H109.683L112.197 5.87148L113.577 8.58683H116.204L114.017 4.38633L117.977 0.149414Z" fill="#1559A3"/>
<path d="M134.741 0.149414H132.425L131.696 3.28967H127.957L128.711 0.149414H126.387L124.398 8.58683H126.723L127.521 5.18758H131.247L130.449 8.58683H132.774L134.741 0.202021V0.149414Z" fill="#1559A3"/>
<path d="M149.841 0.149414L145.093 4.94478L146.223 0.149414H143.902L141.914 8.58683H144.157L149.134 3.54461L147.931 8.58683H150.268L152.243 0.149414H149.841Z" fill="#1559A3"/>
<path d="M169.318 0.161554V0.149414H166.35L162.952 3.45963L163.715 0.149414H161.39L159.424 8.58683H161.727L162.309 6.11428L163.142 5.33326L164.815 8.58683H167.532L164.927 4.09901L169.318 0.161554Z" fill="#1559A3"/>
<path d="M181.769 7.38486L181.924 8.59888H184.439L183.037 0.222168H180.13L174.773 8.65149H177.525L178.254 7.38891H181.769V7.38486ZM181.195 2.26576L181.57 5.42625H179.324L181.195 2.26576Z" fill="#1559A3"/>
</g>
<defs>
<clipPath id="clip0_2202_470">
<rect width="185" height="44" fill="white"/>
</clipPath>
</defs>
</svg>
