<svg width="41" height="41" viewBox="0 0 41 41" fill="none" xmlns="http://www.w3.org/2000/svg">
<g clip-path="url(#clip0_2232_1943)">
<rect x="13.9453" y="12.9053" width="1.78729" height="18.3836" fill="#0385D0"/>
<path fill-rule="evenodd" clip-rule="evenodd" d="M8.88424 11.9966C9.11801 11.61 9.54124 11.373 9.99822 11.373H18.4815C18.7456 11.373 19.0124 11.4516 19.2414 11.6153C23.7001 14.8027 32.7725 21.1624 34.1151 22.4798C34.5598 22.9497 34.7534 23.1181 34.6257 23.4805V28.48C34.6257 29.1851 34.6257 29.3737 34.6257 30.778H1.17773C1.17773 29.629 1.17776 29.1851 1.17776 28.48V25.0953C1.17776 24.8654 1.2408 24.6398 1.36022 24.4423L8.88424 11.9966ZM10.4404 13.4157L3.25205 25.3061V27.714H32.5514V23.8451C30.5712 22.2822 22.5561 16.5104 18.2289 13.4157H10.4404Z" fill="#0385D0"/>
<path d="M25.8494 24.0782L24.5532 23.3037C24.3201 23.1645 24.0183 23.2405 23.8791 23.4735C23.7398 23.7066 23.8159 24.0084 24.0489 24.1476L25.3451 24.9221C25.5781 25.0614 25.8799 24.9854 26.0192 24.7523C26.1584 24.5193 26.0824 24.2175 25.8494 24.0782Z" fill="#2D2D2D"/>
<path d="M25.1082 21.3017L24.9305 21.1955C24.6884 21.0509 24.3749 21.1299 24.2303 21.372L22.2364 24.7089C22.0917 24.951 22.1707 25.2645 22.4128 25.4092L22.5905 25.5153C22.8326 25.66 23.1461 25.581 23.2908 25.3389L25.2847 22.002C25.4293 21.7599 25.3503 21.4464 25.1082 21.3017Z" fill="#2D2D2D"/>
<path d="M30.0149 28.8555H11.9316V33.3763H30.0149V28.8555Z" fill="#0385D0"/>
<path d="M16.2682 25.0317H12.433C11.1648 25.0317 10.1367 26.0598 10.1367 27.328C10.1367 28.5962 11.1648 29.6243 12.433 29.6243H16.2682C17.5364 29.6243 18.5644 28.5962 18.5644 27.328C18.5644 26.0598 17.5364 25.0317 16.2682 25.0317Z" fill="#0C6EA7"/>
<path d="M12.9225 25.3485L11.8654 21.6619C11.5158 20.4428 10.2442 19.738 9.02509 20.0875C7.80602 20.4371 7.10114 21.7087 7.45071 22.9278L8.50782 26.6144C8.85738 27.8335 10.129 28.5383 11.3481 28.1888C12.5672 27.8392 13.272 26.5676 12.9225 25.3485Z" fill="#0C6EA7"/>
<path fill-rule="evenodd" clip-rule="evenodd" d="M8.45703 27.6025H18.5885V33.3338L8.65885 33.6168L8.45703 27.6025Z" fill="#2D2D2D"/>
<path d="M7.94914 23.9295L6.7207 24.3286L8.916 31.085L10.1444 30.6859L7.94914 23.9295Z" fill="#2D2D2D"/>
<path fill-rule="evenodd" clip-rule="evenodd" d="M0.144531 31.2775C0.144531 31.2775 2.24348 26.7563 7.16761 26.7563C12.0917 26.7563 14.0299 29.0171 14.6757 31.2775C15.3215 33.5379 15.3215 34.8295 15.3215 34.8295L13.0611 34.1837L7.16761 29.9858L2.24348 32.7306L0.144531 31.2775Z" fill="#0094DE"/>
<path fill-rule="evenodd" clip-rule="evenodd" d="M40.6724 33.0607C40.6724 33.2017 40.5581 33.316 40.417 33.316H32.1158L14.9046 33.7742C14.7755 33.7776 14.6641 33.6841 14.6452 33.5564L14.3988 31.8929C14.376 31.7387 14.4955 31.6002 14.6514 31.6002H26.2497C26.3336 31.6002 26.4122 31.559 26.4598 31.4899L27.8719 29.4447C27.945 29.3388 27.9279 29.1951 27.832 29.1093L24.5638 26.1879C24.4762 26.1096 24.4533 25.9818 24.5083 25.878L26.3116 22.4731C26.356 22.3893 26.443 22.337 26.5378 22.3372L33.8853 22.3522C33.9521 22.3523 34.0162 22.3786 34.0638 22.4254L38.7177 27.0016C38.7291 27.0129 38.7416 27.023 38.755 27.032L40.5587 28.235C40.6297 28.2824 40.6724 28.3621 40.6724 28.4474V33.0607Z" fill="#0094DE"/>
<path fill-rule="evenodd" clip-rule="evenodd" d="M12.0918 33.5378L32.8391 33.2148H40.589L38.6512 35.2331H30.0943H12.4147L12.0918 33.5378Z" fill="#0C6EA7"/>
<path d="M7.41143 39.1891C9.9082 39.1891 11.9322 37.165 11.9322 34.6683C11.9322 32.1715 9.9082 30.1475 7.41143 30.1475C4.91466 30.1475 2.89062 32.1715 2.89062 34.6683C2.89062 37.165 4.91466 39.1891 7.41143 39.1891Z" fill="#D1DBE5" stroke="#2D2D2D" stroke-width="1.93749"/>
<path d="M7.4095 35.3141C7.76618 35.3141 8.05533 35.025 8.05533 34.6683C8.05533 34.3116 7.76618 34.0225 7.4095 34.0225C7.05282 34.0225 6.76367 34.3116 6.76367 34.6683C6.76367 35.025 7.05282 35.3141 7.4095 35.3141Z" fill="#29755B"/>
<path d="M33.2435 39.1891C35.7402 39.1891 37.7643 37.165 37.7643 34.6683C37.7643 32.1715 35.7402 30.1475 33.2435 30.1475C30.7467 30.1475 28.7227 32.1715 28.7227 34.6683C28.7227 37.165 30.7467 39.1891 33.2435 39.1891Z" fill="#D1DBE5" stroke="#2D2D2D" stroke-width="1.93749"/>
<path d="M33.2454 35.3141C33.6021 35.3141 33.8913 35.025 33.8913 34.6683C33.8913 34.3116 33.6021 34.0225 33.2454 34.0225C32.8888 34.0225 32.5996 34.3116 32.5996 34.6683C32.5996 35.025 32.8888 35.3141 33.2454 35.3141Z" fill="#29755B"/>
<path d="M11.7975 34.6283C11.7975 37.0388 9.84345 38.9929 7.43295 38.9929C5.02245 38.9929 3.06836 37.0388 3.06836 34.6283C3.06836 32.2178 5.02245 30.2637 7.43295 30.2637C9.84345 30.2637 11.7975 32.2178 11.7975 34.6283Z" fill="white"/>
<path fill-rule="evenodd" clip-rule="evenodd" d="M12.9225 34.6282C12.9225 37.66 10.4647 40.1178 7.43291 40.1178C4.40111 40.1178 1.94336 37.66 1.94336 34.6282C1.94336 31.5964 4.40111 29.1387 7.43291 29.1387C10.4647 29.1387 12.9225 31.5964 12.9225 34.6282ZM7.43291 38.9928C9.8434 38.9928 11.7975 37.0387 11.7975 34.6282C11.7975 32.2177 9.8434 30.2636 7.43291 30.2636C5.02241 30.2636 3.06831 32.2177 3.06831 34.6282C3.06831 37.0387 5.02241 38.9928 7.43291 38.9928Z" fill="#2D2D2D"/>
<path d="M9.09233 34.7522C9.09233 35.6525 8.36249 36.3824 7.46218 36.3824C6.56187 36.3824 5.83203 35.6525 5.83203 34.7522C5.83203 33.8519 6.56187 33.1221 7.46218 33.1221C8.36249 33.1221 9.09233 33.8519 9.09233 34.7522Z" fill="#0385D0"/>
<path d="M8.23782 34.7761C8.23782 35.1913 7.90127 35.5279 7.4861 35.5279C7.07093 35.5279 6.73438 35.1913 6.73438 34.7761C6.73438 34.361 7.07093 34.0244 7.4861 34.0244C7.90127 34.0244 8.23782 34.361 8.23782 34.7761Z" fill="#2D2D2D"/>
<path d="M37.5847 34.4803C37.5847 36.8908 35.6306 38.8449 33.2201 38.8449C30.8096 38.8449 28.8555 36.8908 28.8555 34.4803C28.8555 32.0698 30.8096 30.1157 33.2201 30.1157C35.6306 30.1157 37.5847 32.0698 37.5847 34.4803Z" fill="white"/>
<path fill-rule="evenodd" clip-rule="evenodd" d="M38.7096 34.4803C38.7096 37.5121 36.2518 39.9698 33.22 39.9698C30.1882 39.9698 27.7305 37.5121 27.7305 34.4803C27.7305 31.4485 30.1882 28.9907 33.22 28.9907C36.2518 28.9907 38.7096 31.4485 38.7096 34.4803ZM33.22 38.8449C35.6305 38.8449 37.5846 36.8908 37.5846 34.4803C37.5846 32.0698 35.6305 30.1157 33.22 30.1157C30.8095 30.1157 28.8554 32.0698 28.8554 34.4803C28.8554 36.8908 30.8095 38.8449 33.22 38.8449Z" fill="#2D2D2D"/>
<path d="M34.8814 34.6043C34.8814 35.5046 34.1516 36.2344 33.2512 36.2344C32.3509 36.2344 31.6211 35.5046 31.6211 34.6043C31.6211 33.704 32.3509 32.9741 33.2512 32.9741C34.1516 32.9741 34.8814 33.704 34.8814 34.6043Z" fill="#0385D0"/>
<path d="M34.0249 34.6282C34.0249 35.0434 33.6884 35.3799 33.2732 35.3799C32.858 35.3799 32.5215 35.0434 32.5215 34.6282C32.5215 34.213 32.858 33.8765 33.2732 33.8765C33.6884 33.8765 34.0249 34.213 34.0249 34.6282Z" fill="#2D2D2D"/>
</g>
<defs>
<clipPath id="clip0_2232_1943">
<rect width="40.6654" height="40.6654" fill="white" transform="translate(0 0.0288086)"/>
</clipPath>
</defs>
</svg>
