<svg width="41" height="41" viewBox="0 0 41 41" fill="none" xmlns="http://www.w3.org/2000/svg">
<g clip-path="url(#clip0_2232_1821)">
<path d="M13.634 17.9623L17.8775 13.7188L20.5933 13.7188L24.1042 14.5675L31.202 21.0176L24.3276 28.2315L13.634 17.9623Z" fill="#409276"/>
<path d="M13.634 17.9623L17.8775 13.7188L20.5933 13.7188L24.1042 14.5675L31.202 21.0176L24.3276 28.2315L13.634 17.9623Z" fill="#0C6EA7"/>
<path d="M26.6967 29.4589C25.6345 28.3967 25.6317 26.6773 26.6985 25.6106L27.6493 24.6598C28.7125 23.5966 30.4337 23.594 31.4976 24.658L35.6806 28.8409C36.7428 29.9031 36.7455 31.6225 35.6788 32.6892L34.728 33.6401C33.6648 34.7032 31.9436 34.7058 30.8797 33.6419L26.6967 29.4589Z" fill="#0094DE"/>
<path d="M26.6967 29.4589C25.6345 28.3967 25.6317 26.6773 26.6985 25.6106L27.6493 24.6598C28.7125 23.5966 30.4337 23.594 31.4976 24.658L35.6806 28.8409C36.7428 29.9031 36.7455 31.6225 35.6788 32.6892L34.728 33.6401C33.6648 34.7032 31.9436 34.7058 30.8797 33.6419L26.6967 29.4589Z" stroke="#C2D5E8" stroke-width="2.14029"/>
<path d="M20.1307 28.9125C19.8924 29.4163 19.9829 30.0354 20.3998 30.4522C20.9338 30.9862 21.7893 30.983 22.3189 30.4534L29.5228 23.2495C30.054 22.7183 30.0518 21.8607 29.5215 21.3304C28.9876 20.7964 28.132 20.7995 27.6024 21.3292L21.3403 27.5913L2.8584 9.74358V5.56587C2.8584 4.82456 2.25044 4.21338 1.50049 4.21338C0.745307 4.21338 0.142578 4.81891 0.142578 5.56587V10.3294C0.142578 10.7377 0.327012 11.1065 0.618022 11.3555L19.488 29.5781L20.1307 28.9125Z" fill="#D1DBE5"/>
<path d="M20.1307 28.9125C19.8924 29.4163 19.9829 30.0354 20.3998 30.4522C20.9338 30.9862 21.7893 30.983 22.3189 30.4534L29.5228 23.2495C30.054 22.7183 30.0518 21.8607 29.5215 21.3304C28.9876 20.7964 28.132 20.7995 27.6024 21.3292L21.3403 27.5913L2.8584 9.74357V5.56587C2.8584 4.82456 2.25044 4.21338 1.50049 4.21338C0.745307 4.21338 0.142578 4.81891 0.142578 5.56587V10.3294C0.142578 10.7377 0.327012 11.1065 0.618022 11.3555L19.488 29.5781L20.1307 28.9125Z" fill="#D8D8D8"/>
<path fill-rule="evenodd" clip-rule="evenodd" d="M29.5883 23.2666L36.7173 17.6228L33.068 16.2224H27.5514L23.3928 13.7612H20.6344L15.0332 19.3626L18.0461 22.2057L20.6344 19.617H23.3928L29.5883 23.2666Z" fill="#0094DE"/>
<path fill-rule="evenodd" clip-rule="evenodd" d="M20.4349 31.649L36.1693 16.2925L37.2553 17.5657L21.7867 32.9618L20.4349 31.649Z" fill="#0C6EA7"/>
<path fill-rule="evenodd" clip-rule="evenodd" d="M32.8649 29.0324L40.1529 36.0704L40.3654 38.2812L38.2664 38.024L30.9783 30.986L30.6563 28.7873L32.8649 29.0324Z" fill="#2D2D2D"/>
<path fill-rule="evenodd" clip-rule="evenodd" d="M40.0125 30.8283L32.9745 38.1163L30.7637 38.3287L31.0209 36.2297L38.0589 28.9417L40.2576 28.6197L40.0125 30.8283Z" fill="#2D2D2D"/>
<path d="M18.312 39.7095C21.5847 39.7095 24.2378 37.0564 24.2378 33.7836C24.2378 30.5109 21.5847 27.8577 18.312 27.8577C15.0392 27.8577 12.3861 30.5109 12.3861 33.7836C12.3861 37.0564 15.0392 39.7095 18.312 39.7095Z" fill="white" stroke="#2D2D2D" stroke-width="1.42709"/>
<ellipse cx="18.3452" cy="33.9321" rx="1.94678" ry="1.94678" fill="#0385D0"/>
<ellipse cx="18.3743" cy="33.9602" rx="0.897736" ry="0.897736" fill="#2D2D2D"/>
</g>
<defs>
<clipPath id="clip0_2232_1821">
<rect width="40.6654" height="40.6654" fill="white" transform="translate(0 0.0273438)"/>
</clipPath>
</defs>
</svg>
