<svg width="41" height="42" viewBox="0 0 41 42" fill="none" xmlns="http://www.w3.org/2000/svg">
<g clip-path="url(#clip0_2232_1836)">
<path d="M23.6062 13.1938L21.1448 17.8043L18.6833 22.4148M18.6833 22.4148H10.9473M18.6833 22.4148V27.703" stroke="#0094DE" stroke-width="1.94754"/>
<path d="M6.07486 12.9533C5.88422 12.6308 5.51794 12.4146 5.09739 12.4146H1.16222C0.54982 12.4146 0.0449219 12.8842 0.0449219 13.4636C0.0449219 14.047 0.545153 14.5126 1.16222 14.5126H4.27631L9.963 33.0584L12.1196 32.4801L6.12778 12.9391L6.07486 12.9533Z" fill="#D8D8D8"/>
<path d="M28.7533 13.583H15.763C15.5719 13.583 15.3969 13.6765 15.2876 13.8334L10.6653 20.4709C10.5971 20.5689 10.5605 20.6854 10.5605 20.8048V28.1895C10.5605 28.5122 10.8221 28.7738 11.1448 28.7738H35.8785C36.2012 28.7738 36.4628 28.5122 36.4628 28.1895V20.0364C36.4628 19.8617 36.3847 19.6963 36.2499 19.5853L29.1216 13.7162C29.017 13.6301 28.8888 13.583 28.7533 13.583Z" stroke="#0094DE" stroke-width="1.94754"/>
<path d="M33.0879 28.6768H13.739C9.93948 28.6768 6.85938 31.1608 6.85938 34.2249V34.2295C6.85938 37.2937 9.93948 39.7777 13.739 39.7777H33.0879C36.8874 39.7777 39.9675 37.2937 39.9675 34.2295V34.2249C39.9675 31.1608 36.8874 28.6768 33.0879 28.6768Z" stroke="#2D2D2D" stroke-width="1.21864" stroke-dasharray="1.22 1.83 1.22 1.83"/>
<rect x="6.85938" y="28.6768" width="33.1081" height="11.101" rx="5.55048" fill="#2D2D2D"/>
<rect x="9.94336" y="31.1924" width="28.9176" height="7.22941" rx="3.61471" fill="#5A5A5A"/>
<path d="M16.2676 35.2593H31.1782" stroke="#2D2D2D" stroke-width="1.21864" stroke-linecap="square"/>
<path d="M12.3743 38.9142C14.9477 38.9142 17.0338 36.8281 17.0338 34.2547C17.0338 31.6813 14.9477 29.5952 12.3743 29.5952C9.80097 29.5952 7.71484 31.6813 7.71484 34.2547C7.71484 36.8281 9.80097 38.9142 12.3743 38.9142Z" fill="#D1DBE5" stroke="#2D2D2D" stroke-width="1.21864"/>
<circle cx="12.609" cy="34.3981" r="4.20451" fill="white" stroke="#2D2D2D" stroke-width="1.0972"/>
<ellipse cx="12.633" cy="34.5022" rx="1.36546" ry="1.36546" fill="#0385D0"/>
<ellipse cx="12.6531" cy="34.5218" rx="0.629667" ry="0.629667" fill="#2D2D2D"/>
<circle cx="24.0182" cy="34.7634" r="3.38715" fill="white" stroke="#2D2D2D" stroke-width="1.0972"/>
<ellipse cx="24.0367" cy="34.8444" rx="1.06018" ry="1.06018" fill="#0385D0"/>
<ellipse cx="24.0533" cy="34.8595" rx="0.488891" ry="0.488891" fill="#2D2D2D"/>
<circle cx="35.0085" cy="34.7634" r="3.38715" fill="white" stroke="#2D2D2D" stroke-width="1.0972"/>
<ellipse cx="35.0289" cy="34.8444" rx="1.06018" ry="1.06018" fill="#0385D0"/>
<ellipse cx="35.0436" cy="34.8595" rx="0.488891" ry="0.488891" fill="#2D2D2D"/>
<path d="M33.7183 26.7148H39.578C39.7931 26.7148 39.9675 26.8892 39.9675 27.1044V31.2323C39.9675 31.5038 39.6967 31.6921 39.4422 31.5974L34.3427 29.701C34.2993 29.6848 34.2533 29.6765 34.2069 29.6765H13.1352C13.1028 29.6765 13.0704 29.6806 13.039 29.6886L7.95256 30.9857C7.59392 31.0772 7.32188 30.6639 7.5477 30.3706L10.246 26.8667C10.3197 26.7709 10.4337 26.7148 10.5546 26.7148H13.0864H33.7183Z" fill="#0385D0"/>
<path d="M24.5291 16.894H19.5517C19.3639 16.894 19.1875 16.9843 19.0777 17.1367L13.6289 24.6968C13.4402 24.9587 13.4996 25.324 13.7616 25.5126L15.4341 26.7164C15.5336 26.788 15.653 26.8265 15.7755 26.8265H21.3582C21.6043 26.8265 21.8239 26.6723 21.9076 26.441L25.0785 17.6771C25.2163 17.2962 24.9342 16.894 24.5291 16.894Z" fill="#D8D8D8"/>
<path fill-rule="evenodd" clip-rule="evenodd" d="M20.2617 19.0649L25.3002 19.5299L25.2626 25.2915L21.3016 25.2656L20.2617 19.0649Z" fill="#0C6EA7"/>
<path fill-rule="evenodd" clip-rule="evenodd" d="M20.6081 16.5049C20.6681 16.25 20.9249 16.0447 21.1853 16.0464L27.7382 16.0891C27.997 16.0908 28.2506 16.2959 28.3055 16.5504L28.766 18.6886L28.2776 20.8207C28.2198 21.073 27.9648 21.2762 27.7044 21.2745L21.1515 21.2317C20.8927 21.23 20.6391 21.0193 20.5869 20.77L20.1242 18.5602L20.6081 16.5049Z" fill="#0094DE"/>
<path fill-rule="evenodd" clip-rule="evenodd" d="M28.7649 18.6885L28.2765 20.8205C28.2186 21.0728 27.9636 21.276 27.7033 21.2743L21.1503 21.2316C20.8916 21.2299 20.638 21.0191 20.5858 20.7698L20.123 18.5601L28.7649 18.6885Z" fill="#0C6EA7"/>
<path d="M24.3853 27.5903C26.1354 27.6017 27.5634 26.1922 27.5748 24.4421C27.5862 22.692 26.1767 21.264 24.4266 21.2526C22.6765 21.2412 21.2486 22.6507 21.2371 24.4008C21.2257 26.1509 22.6352 27.5789 24.3853 27.5903Z" fill="#0C6EA7"/>
<path d="M24.3926 26.4383C25.5063 26.4456 26.415 25.5486 26.4222 24.4349C26.4295 23.3212 25.5326 22.4125 24.4189 22.4052C23.3052 22.398 22.3965 23.2949 22.3892 24.4086C22.3819 25.5223 23.2789 26.431 24.3926 26.4383Z" fill="#0094DE"/>
<path d="M24.3998 25.2859C24.8771 25.289 25.2666 24.9046 25.2697 24.4273C25.2728 23.95 24.8884 23.5605 24.4111 23.5574C23.9338 23.5543 23.5444 23.9387 23.5412 24.416C23.5381 24.8933 23.9225 25.2827 24.3998 25.2859Z" fill="#0C6EA7"/>
</g>
<defs>
<clipPath id="clip0_2232_1836">
<rect width="40.6654" height="40.6654" fill="white" transform="translate(0 0.692383)"/>
</clipPath>
</defs>
</svg>
