<svg width="41" height="42" viewBox="0 0 41 42" fill="none" xmlns="http://www.w3.org/2000/svg">
<g clip-path="url(#clip0_2232_1907)">
<path fill-rule="evenodd" clip-rule="evenodd" d="M24.3301 30.3125L29.2946 32.6685L31.0509 13.3798L28.8649 10.9751L24.3301 30.3125Z" fill="#0C6EA7"/>
<path fill-rule="evenodd" clip-rule="evenodd" d="M28.9566 10.0252C29.0053 9.96524 29.0691 9.91922 29.1414 9.89187L34.8622 7.727C35.0651 7.6502 35.2937 7.73389 35.3991 7.92359L35.8939 8.81423C35.9875 8.98262 35.9598 9.1924 35.8257 9.33076L31.1921 14.1139C31.0169 14.2947 30.7257 14.2906 30.5557 14.1051L29.3425 12.7811C29.1732 12.5964 28.8836 12.5915 28.7081 12.7704L25.2436 16.3022C25.0208 16.5293 24.6377 16.45 24.5235 16.153L24.4404 15.9371C24.3842 15.791 24.4104 15.6261 24.509 15.5046L28.9566 10.0252Z" fill="#0385D0"/>
<path fill-rule="evenodd" clip-rule="evenodd" d="M24.2653 21.3848L27.0236 26.3998L29.155 35.0926L21.5488 30.0358L24.2653 21.3848Z" fill="#0C6EA7"/>
<path fill-rule="evenodd" clip-rule="evenodd" d="M39.2283 31.7733C39.2283 26.3992 33.8252 22.6382 33.8252 22.6382C33.8252 22.6382 28.0273 25.9224 28.0273 31.7733C28.0273 37.6242 29.9499 38.6864 33.2099 38.6864C36.2567 38.6864 38.9002 38.4297 39.2283 34.1728C39.5565 29.916 39.2283 32.0962 39.2283 31.7733Z" fill="#0094DE"/>
<path fill-rule="evenodd" clip-rule="evenodd" d="M32.5398 38.3939V37.3491H35.1308V38.3939H36.3846V39.3552H31.0352V38.3939H32.5398Z" fill="#2D2D2D"/>
<path fill-rule="evenodd" clip-rule="evenodd" d="M33.2109 22.8054C33.2109 22.8054 35.822 21.654 37.3066 21.2173C38.7912 20.7807 40.3153 20.7158 40.3153 20.7158V22.3872L39.3962 23.0562V32.1669L37.7245 31.749L35.8856 24.4771L33.2109 22.8054Z" fill="#2D2D2D"/>
<path d="M20.3383 19.501H15.529C15.2875 19.501 15.0918 19.6967 15.0918 19.9382V22.1242C15.0918 22.3657 15.2875 22.5615 15.529 22.5615H20.3383C20.5798 22.5615 20.7755 22.3657 20.7755 22.1242V19.9382C20.7755 19.6967 20.5798 19.501 20.3383 19.501Z" fill="#D8D8D8"/>
<path d="M7.46608 11.2888C7.2388 10.8778 6.80213 10.6021 6.30077 10.6021H1.60936C0.87927 10.6021 0.277344 11.2008 0.277344 11.9394C0.277344 12.6832 0.873707 13.2768 1.60936 13.2768H5.32189L12.1014 36.9198L14.6725 36.1825L7.52917 11.2707L7.46608 11.2888Z" fill="#D1DBE5"/>
<path d="M7.46608 11.2888C7.2388 10.8778 6.80213 10.6021 6.30077 10.6021H1.60936C0.87927 10.6021 0.277344 11.2008 0.277344 11.9394C0.277344 12.6832 0.873707 13.2768 1.60936 13.2768H5.32189L12.1014 36.9198L14.6725 36.1825L7.52917 11.2707L7.46608 11.2888Z" fill="#D8D8D8"/>
<path fill-rule="evenodd" clip-rule="evenodd" d="M29.0312 29.1582L24.3236 29.0507V21.3013H10.9893V29.0507H9.22916L6.96484 34.0897L10.9893 32.3309H24.6848L28.3625 34.6748L29.0312 29.1582Z" fill="#0094DE"/>
<path d="M21.6745 25.313H13.6504V29.325H21.6745V25.313Z" fill="#0C6EA7"/>
<path d="M22.9307 32H11.6468C9.43102 32 7.63477 33.7963 7.63477 36.0121V36.0154C7.63477 38.2312 9.43102 40.0275 11.6468 40.0275H22.9307C25.1465 40.0275 26.9428 38.2312 26.9428 36.0154V36.0121C26.9428 33.7963 25.1465 32 22.9307 32Z" fill="#2D2D2D"/>
<path d="M22.9307 32H11.6468C9.43102 32 7.63477 33.7963 7.63477 36.0121V36.0154C7.63477 38.2312 9.43102 40.0275 11.6468 40.0275H22.9307C25.1465 40.0275 26.9428 38.2312 26.9428 36.0154V36.0121C26.9428 33.7963 25.1465 32 22.9307 32Z" stroke="#2D2D2D" stroke-width="0.874422" stroke-dasharray="0.87 1.31 0.87 1.31"/>
<path d="M22.9699 33.4707H11.6024C10.1252 33.4707 8.92773 34.6682 8.92773 36.1454C8.92773 37.6226 10.1252 38.8201 11.6024 38.8201H22.9699C24.4471 38.8201 25.6446 37.6226 25.6446 36.1454C25.6446 34.6682 24.4471 33.4707 22.9699 33.4707Z" fill="#9B9B9B" fill-opacity="0.44"/>
<path d="M14.6562 36.0117H20.6743" stroke="#2D2D2D" stroke-width="0.874422" stroke-linecap="square"/>
<path d="M11.6422 39.3552C13.4887 39.3552 14.9856 37.8583 14.9856 36.0118C14.9856 34.1653 13.4887 32.6685 11.6422 32.6685C9.79571 32.6685 8.29883 34.1653 8.29883 36.0118C8.29883 37.8583 9.79571 39.3552 11.6422 39.3552Z" fill="#D1DBE5" stroke="#2D2D2D" stroke-width="0.874422"/>
<path d="M11.8147 39.1319C13.4809 39.1319 14.8316 37.7812 14.8316 36.115C14.8316 34.4488 13.4809 33.0981 11.8147 33.0981C10.1485 33.0981 8.79776 34.4488 8.79776 36.115C8.79776 37.7812 10.1485 39.1319 11.8147 39.1319Z" fill="white" stroke="#2D2D2D" stroke-width="0.787286"/>
<ellipse cx="11.8294" cy="36.1897" rx="0.979774" ry="0.979773" fill="#0385D0"/>
<ellipse cx="11.8444" cy="36.2038" rx="0.451813" ry="0.451812" fill="#2D2D2D"/>
<path d="M22.9612 39.1319C24.6274 39.1319 25.9781 37.7812 25.9781 36.115C25.9781 34.4488 24.6274 33.0981 22.9612 33.0981C21.295 33.0981 19.9442 34.4488 19.9442 36.115C19.9442 37.7812 21.295 39.1319 22.9612 39.1319Z" fill="white" stroke="#2D2D2D" stroke-width="0.787286"/>
<ellipse cx="22.9798" cy="36.1897" rx="0.979774" ry="0.979773" fill="#0385D0"/>
<ellipse cx="22.9909" cy="36.2038" rx="0.451813" ry="0.451812" fill="#2D2D2D"/>
</g>
<defs>
<clipPath id="clip0_2232_1907">
<rect width="40.6654" height="40.6654" fill="white" transform="translate(0 0.693359)"/>
</clipPath>
</defs>
</svg>
