<svg width="41" height="42" viewBox="0 0 41 42" fill="none" xmlns="http://www.w3.org/2000/svg">
<g clip-path="url(#clip0_2232_2017)">
<path fill-rule="evenodd" clip-rule="evenodd" d="M10.2524 1.91241C9.94006 2.00672 9.60017 2.35536 9.53582 2.64749C9.50622 2.78188 9.44319 3.20542 9.39567 3.58872L9.30943 4.28569L8.68621 4.50009C8.34343 4.61798 7.80746 4.8448 7.49514 5.00419L6.92731 5.29404L6.36555 4.83403C5.68795 4.27924 5.66091 4.2625 5.32336 4.18564C4.79634 4.06578 4.54892 4.21425 3.44987 5.31039C2.37254 6.38476 2.18129 6.65921 2.18129 7.13085C2.18129 7.45276 2.27501 7.62583 2.84362 8.35407C3.06308 8.63504 3.26625 8.90509 3.29523 8.95413C3.32429 9.00318 3.2301 9.30379 3.08614 9.62218C2.94209 9.94056 2.74687 10.4398 2.65221 10.7315C2.55764 11.0233 2.43923 11.2631 2.38914 11.2645C2.03694 11.2741 0.694897 11.4956 0.565577 11.5655C0.477936 11.6128 0.314885 11.7611 0.203172 11.895L0 12.1386V13.8345C0 15.5297 7.7889e-05 15.5307 0.197952 15.7923C0.476612 16.1609 0.583963 16.2022 1.61501 16.3381C2.11928 16.4045 2.55273 16.4833 2.57821 16.513C2.60368 16.5427 2.70589 16.797 2.80537 17.0779C2.90485 17.3589 3.08668 17.7934 3.20961 18.0437L3.43296 18.4985L2.97302 19.0664C2.33125 19.8587 2.18191 20.1294 2.1816 20.501C2.18113 20.9497 2.4693 21.3619 3.47596 22.3529C4.40309 23.2655 4.67201 23.4442 5.11824 23.4437C5.46397 23.4434 5.74871 23.2815 6.51567 22.6492L7.07377 22.1891L7.80208 22.5347C8.20266 22.7247 8.676 22.9232 8.85393 22.9758L9.17754 23.0714L9.26978 23.8667C9.40323 25.0173 9.46532 25.2079 9.79648 25.4833L10.085 25.7232H11.7497C13.5812 25.7232 13.7119 25.6945 13.9814 25.2341C14.0928 25.0442 14.322 23.7658 14.3317 23.2815C14.3333 23.2008 14.4884 23.1108 14.7821 23.0205C15.0285 22.9445 15.534 22.7391 15.9053 22.5638L16.5806 22.2451L17.3694 22.8446C18.2339 23.5015 18.5073 23.5793 19.0459 23.3215C19.1865 23.2542 19.7732 22.7149 20.3497 22.123C21.3735 21.072 21.5699 20.7758 21.4667 20.4387C21.45 20.3841 21.4166 20.2475 21.3924 20.1351C21.3681 20.0225 21.108 19.6275 20.8144 19.2572L20.2805 18.5839L20.5743 17.9685C20.736 17.63 20.9435 17.1189 21.0354 16.8327L21.2027 16.3125L21.7999 16.2584C22.9957 16.1501 23.3477 15.9897 23.5758 15.4496C23.7268 15.092 23.7268 12.3834 23.5758 12.0258C23.3531 11.4987 22.9976 11.3402 21.7669 11.2197L21.2147 11.1656L21.0365 10.6048C20.9385 10.2962 20.738 9.80168 20.5908 9.50578L20.3233 8.96781L20.6442 8.56266C21.3819 7.63141 21.5497 7.24009 21.4175 6.75871C21.3191 6.40024 19.2197 4.29488 18.8557 4.18957C18.472 4.07852 18.0849 4.20788 17.5521 4.62529C16.6901 5.30056 16.8233 5.27023 16.1412 4.94729C15.81 4.79049 15.2943 4.57916 14.995 4.47761L14.451 4.293L14.3865 3.7889C14.2123 2.429 14.0391 2.0655 13.4917 1.91217C13.1472 1.81558 10.5724 1.81581 10.2524 1.91241ZM13.091 9.6926C14.119 9.99384 15.1449 10.8974 15.6315 11.9301C16.6132 14.014 15.7569 16.4384 13.672 17.4776C12.06 18.281 10.251 17.9723 8.96448 16.6744C8.05013 15.7519 7.66622 14.7627 7.73314 13.5019C7.79242 12.3847 8.17446 11.5181 8.95287 10.7353C10.0699 9.61204 11.5463 9.23998 13.091 9.6926Z" fill="#0094DE"/>
<path fill-rule="evenodd" clip-rule="evenodd" d="M29.891 14.8209C29.6405 14.896 29.3678 15.1734 29.3162 15.4058C29.2924 15.5128 29.2419 15.8498 29.2037 16.1548L29.1346 16.7094L28.6346 16.88C28.3596 16.9738 27.9296 17.1543 27.679 17.2811L27.2235 17.5118L26.7728 17.1457C26.2292 16.7043 26.2075 16.691 25.9367 16.6298C25.5139 16.5344 25.3154 16.6526 24.4337 17.5248C23.5694 18.3797 23.416 18.5981 23.416 18.9734C23.416 19.2295 23.4912 19.3673 23.9473 19.9467C24.1234 20.1703 24.2864 20.3852 24.3096 20.4242C24.3329 20.4633 24.2574 20.7025 24.1419 20.9558C24.0263 21.2092 23.8697 21.6064 23.7938 21.8385C23.7179 22.0708 23.6229 22.2616 23.5827 22.2627C23.3002 22.2703 22.2235 22.4466 22.1198 22.5021C22.0494 22.5398 21.9186 22.6578 21.829 22.7644L21.666 22.9582V24.3077C21.666 25.6566 21.6661 25.6574 21.8248 25.8656C22.0484 26.1589 22.1345 26.1918 22.9617 26.2999C23.3662 26.3527 23.714 26.4154 23.7344 26.439C23.7548 26.4627 23.8368 26.665 23.9166 26.8886C23.9964 27.1121 24.1423 27.4579 24.2409 27.657L24.4201 28.019L24.0511 28.4709C23.5363 29.1013 23.4165 29.3167 23.4162 29.6124C23.4158 29.9694 23.647 30.2974 24.4546 31.086C25.1984 31.8122 25.4142 31.9544 25.7721 31.954C26.0495 31.9537 26.2779 31.8249 26.8932 31.3218L27.341 30.9557L27.9253 31.2306C28.2466 31.3819 28.6264 31.5398 28.7691 31.5817L29.0287 31.6577L29.1027 32.2906C29.2098 33.2061 29.2596 33.3578 29.5253 33.5769L29.7568 33.7679H31.0923C32.5616 33.7679 32.6665 33.745 32.8827 33.3787C32.972 33.2275 33.1559 32.2103 33.1637 31.825C33.165 31.7607 33.2894 31.6891 33.5251 31.6172C33.7227 31.5568 34.1282 31.3933 34.4262 31.2539L34.9679 31.0003L35.6007 31.4772C36.2942 32 36.5136 32.0619 36.9456 31.8568C37.0585 31.8032 37.5292 31.3741 37.9917 30.9031C38.813 30.0667 38.9706 29.8311 38.8878 29.5628C38.8744 29.5194 38.8476 29.4107 38.8282 29.3212C38.8087 29.2317 38.6 28.9173 38.3645 28.6226L37.9361 28.0869L38.1719 27.5972C38.3015 27.3278 38.468 26.9212 38.5418 26.6934L38.676 26.2795L39.1551 26.2364C40.1144 26.1502 40.3968 26.0227 40.5798 25.5929C40.701 25.3083 40.701 23.153 40.5798 22.8684C40.4012 22.449 40.1159 22.3229 39.1286 22.227L38.6856 22.1839L38.5427 21.7377C38.464 21.4921 38.3032 21.0986 38.1851 20.8632L37.9705 20.4351L38.2279 20.1127C38.8198 19.3717 38.9544 19.0603 38.8483 18.6773C38.7693 18.392 37.0851 16.7167 36.7931 16.6329C36.4853 16.5446 36.1747 16.6475 35.7473 16.9796C35.0558 17.517 35.1626 17.4928 34.6153 17.2359C34.3497 17.1111 33.9359 16.9429 33.6959 16.8621L33.2594 16.7152L33.2076 16.3141C33.0679 15.232 32.9289 14.9427 32.4898 14.8207C32.2134 14.7439 30.1478 14.7441 29.891 14.8209ZM32.1683 21.0118C32.9931 21.2516 33.8161 21.9705 34.2065 22.7923C34.9941 24.4505 34.3071 26.3797 32.6345 27.2066C31.3412 27.8459 29.89 27.6003 28.8578 26.5674C28.1243 25.8334 27.8163 25.0463 27.87 24.043C27.9175 23.154 28.224 22.4644 28.8485 21.8415C29.7447 20.9477 30.9291 20.6517 32.1683 21.0118Z" fill="#0385D0"/>
<path fill-rule="evenodd" clip-rule="evenodd" d="M14.6123 25.8295C14.4219 25.8866 14.2147 26.0974 14.1754 26.2741C14.1574 26.3553 14.119 26.6115 14.09 26.8433L14.0374 27.2648L13.6574 27.3944C13.4484 27.4657 13.1216 27.6029 12.9312 27.6993L12.585 27.8746L12.2425 27.5964C11.8293 27.2609 11.8129 27.2508 11.6071 27.2043C11.2857 27.1318 11.1349 27.2216 10.4648 27.8845C9.8079 28.5342 9.69129 28.7002 9.69129 28.9854C9.69129 29.1801 9.74843 29.2847 10.0951 29.7252C10.2289 29.8951 10.3528 30.0584 10.3705 30.088C10.3882 30.1177 10.3308 30.2995 10.243 30.492C10.1552 30.6846 10.0361 30.9865 9.97842 31.1629C9.92076 31.3394 9.84856 31.4844 9.81802 31.4853C9.60328 31.4911 8.78502 31.625 8.70617 31.6673C8.65273 31.6959 8.55332 31.7856 8.4852 31.8666L8.36133 32.0138V33.0395C8.36133 34.0647 8.36138 34.0652 8.48202 34.2234C8.65192 34.4464 8.71738 34.4714 9.34602 34.5535C9.65348 34.5937 9.91776 34.6413 9.9333 34.6593C9.94883 34.6773 10.0111 34.831 10.0718 35.0009C10.1325 35.1709 10.2433 35.4336 10.3183 35.585L10.4545 35.86L10.174 36.2035C9.78273 36.6826 9.69167 36.8463 9.69148 37.071C9.6912 37.3424 9.86689 37.5917 10.4807 38.191C11.046 38.7429 11.2099 38.8509 11.482 38.8506C11.6928 38.8505 11.8664 38.7525 12.334 38.3702L12.6743 38.0919L13.1184 38.3009C13.3626 38.4158 13.6512 38.5359 13.7597 38.5677L13.957 38.6255L14.0132 39.1065C14.0946 39.8023 14.1325 39.9175 14.3344 40.0841L14.5103 40.2292H15.5253C16.642 40.2292 16.7217 40.2119 16.886 39.9334C16.9539 39.8185 17.0937 39.0455 17.0996 38.7526C17.1006 38.7037 17.1951 38.6494 17.3742 38.5947C17.5244 38.5488 17.8326 38.4245 18.059 38.3186L18.4708 38.1258L18.9517 38.4883C19.4788 38.8856 19.6455 38.9327 19.9738 38.7768C20.0596 38.7361 20.4173 38.4099 20.7688 38.052C21.3931 37.4163 21.5128 37.2373 21.4499 37.0334C21.4397 37.0004 21.4193 36.9178 21.4046 36.8497C21.3898 36.7817 21.2312 36.5428 21.0522 36.3188L20.7266 35.9117L20.9058 35.5395C21.0043 35.3348 21.1309 35.0257 21.1869 34.8526L21.2889 34.538L21.653 34.5053C22.3821 34.4398 22.5967 34.3428 22.7358 34.0162C22.8279 33.8 22.8279 32.1619 22.7358 31.9456C22.6 31.6269 22.3833 31.531 21.6329 31.4581L21.2962 31.4254L21.1876 31.0863C21.1278 30.8997 21.0056 30.6006 20.9158 30.4216L20.7527 30.0963L20.9484 29.8513C21.3982 29.2881 21.5005 29.0515 21.4199 28.7603C21.3599 28.5436 20.0799 27.2703 19.8579 27.2066C19.624 27.1395 19.388 27.2177 19.0631 27.4702C18.5375 27.8785 18.6187 27.8602 18.2028 27.6649C18.0009 27.5701 17.6865 27.4423 17.504 27.3808L17.1723 27.2692L17.133 26.9643C17.0268 26.1419 16.9212 25.9221 16.5874 25.8294C16.3773 25.771 14.8075 25.7711 14.6123 25.8295ZM16.3431 30.5346C16.9699 30.7168 17.5954 31.2632 17.8921 31.8877C18.4907 33.148 17.9686 34.6142 16.6973 35.2426C15.7145 35.7285 14.6115 35.5418 13.8271 34.7569C13.2696 34.199 13.0355 33.6008 13.0763 32.8383C13.1125 32.1627 13.3454 31.6386 13.82 31.1652C14.5011 30.4859 15.4013 30.2609 16.3431 30.5346Z" fill="#0C6EA7"/>
<circle cx="11.9726" cy="13.813" r="4.37107" fill="#C2D5E8"/>
<ellipse cx="31.1669" cy="24.2656" rx="3.42084" ry="3.42084" fill="#C2D5E8"/>
<circle cx="15.5845" cy="33.0078" r="2.66065" fill="#C2D5E8"/>
<ellipse cx="11.9733" cy="13.8132" rx="2.09051" ry="2.09051" fill="white"/>
<ellipse cx="31.1693" cy="24.2654" rx="1.63605" ry="1.63605" fill="white"/>
<ellipse cx="15.585" cy="33.0078" rx="1.27249" ry="1.27248" fill="white"/>
<ellipse cx="11.9725" cy="13.8128" rx="0.57014" ry="0.570141" fill="#2D2D2D"/>
<ellipse cx="31.1669" cy="24.2655" rx="0.446198" ry="0.446195" fill="#2D2D2D"/>
<ellipse cx="15.5834" cy="33.0077" rx="0.347042" ry="0.347043" fill="#2D2D2D"/>
</g>
<defs>
<clipPath id="clip0_2232_2017">
<rect width="40.67" height="40.67" fill="white" transform="translate(0 0.699707)"/>
</clipPath>
</defs>
</svg>
