<svg width="20" height="12" viewBox="0 0 20 12" fill="none" xmlns="http://www.w3.org/2000/svg">
<path fill-rule="evenodd" clip-rule="evenodd" d="M9.33563 0.0896014C7.64925 0.195031 5.97331 0.724876 4.42044 1.64347C2.99969 2.4839 1.6339 3.69504 0.46034 5.15519C0.0566745 5.65746 -0.0191031 5.81191 0.0036419 6.08625C0.0248237 6.34129 0.114944 6.48125 0.7316 7.21676C2.06656 8.80902 3.56636 10.018 5.2126 10.8289C6.8411 11.631 8.2595 11.9687 10 11.9687C11.6707 11.9687 13.0987 11.642 14.6416 10.9069C16.4221 10.0585 18.1054 8.67996 19.5397 6.89551C19.9433 6.39324 20.0191 6.23879 19.9964 5.96445C19.9752 5.70941 19.8851 5.56945 19.2684 4.83394C18.2455 3.61394 17.0769 2.58023 15.8331 1.79515C15.3446 1.48683 14.3254 0.976243 13.7908 0.772024C12.3999 0.240578 10.8116 -0.00270334 9.33563 0.0896014ZM10.7888 1.90507C12.5545 2.27195 13.8329 3.58296 14.1431 5.34465C14.2215 5.79015 14.1745 6.70488 14.0512 7.13461C13.8439 7.85668 13.46 8.49703 12.921 9.01981C12.3901 9.53469 11.8058 9.875 11.1098 10.0746C10.6798 10.1979 9.7647 10.2448 9.31898 10.1665C7.55647 9.85649 6.24484 8.57863 5.8778 6.81383C5.80859 6.48101 5.79846 5.64398 5.85951 5.30012C6.15758 3.62117 7.49774 2.2507 9.1793 1.90519C9.53724 1.83163 10.4352 1.8316 10.7888 1.90507ZM9.55057 3.80109C9.07304 3.91937 8.76067 4.09535 8.41488 4.44097C8.1113 4.74441 7.98292 4.94906 7.84477 5.34961C7.71667 5.72105 7.71768 6.35828 7.84692 6.72848C8.08746 7.41738 8.60732 7.93699 9.29655 8.17742C9.66691 8.3066 10.3044 8.30762 10.6761 8.17957C11.0768 8.04149 11.2815 7.91316 11.5851 7.60973C12.0229 7.17211 12.2228 6.72961 12.2566 6.12301C12.3117 5.13578 11.6821 4.20605 10.737 3.8791C10.4524 3.78062 9.80499 3.73808 9.55057 3.80109Z" fill="#B6B6B6"/>
</svg>
