<svg width="20" height="20" viewBox="0 0 20 20" fill="none" xmlns="http://www.w3.org/2000/svg">
<path d="M11.1044 10.0008L19.7707 1.33445C20.0758 1.02933 20.0758 0.534647 19.7707 0.22957C19.4656 -0.0755077 18.9709 -0.0755467 18.6658 0.22957L9.9995 8.89588L1.33323 0.22957C1.02811 -0.0755467 0.533427 -0.0755467 0.228349 0.22957C-0.0767284 0.534686 -0.0767674 1.02937 0.228349 1.33445L8.89462 10.0007L0.228349 18.667C-0.0767674 18.9721 -0.0767674 19.4668 0.228349 19.7719C0.380888 19.9244 0.580848 20.0007 0.780809 20.0007C0.98077 20.0007 1.18069 19.9244 1.33327 19.7719L9.9995 11.1056L18.6658 19.7719C18.8183 19.9244 19.0183 20.0007 19.2182 20.0007C19.4182 20.0007 19.6181 19.9244 19.7707 19.7719C20.0758 19.4668 20.0758 18.9721 19.7707 18.667L11.1044 10.0008Z" fill="#1559A3"/>
</svg>
