<svg width="27" height="26" viewBox="0 0 27 26" fill="none" xmlns="http://www.w3.org/2000/svg">
<path d="M22.1683 -2.29628e-06C23.3104 -2.19644e-06 24.3246 0.454298 25.2109 1.3629C26.1484 2.32392 26.6172 3.49025 26.6172 4.86189C26.6172 6.23353 26.1484 7.39986 25.2109 8.36088L10.5092 24.3488C9.75923 25.1351 8.89417 25.6418 7.91406 25.8689C6.93395 26.0961 5.94105 26.0349 4.93537 25.6855C3.92969 25.336 3.00071 24.7332 2.14844 23.877C1.87571 23.58 1.62429 23.2523 1.39417 22.8941C1.16406 22.5359 0.976561 22.1603 0.831675 21.7671C0.686789 21.374 0.575993 20.959 0.499289 20.5222C0.422583 20.0853 0.384232 19.6485 0.384232 19.2117C0.418322 17.3595 1.03196 15.8132 2.22514 14.5726L13.3473 2.46371C13.5007 2.28898 13.6882 2.19724 13.9098 2.1885C14.1314 2.17977 14.3232 2.25403 14.4851 2.41129C14.647 2.56855 14.7322 2.76512 14.7408 3.001C14.7493 3.23689 14.6768 3.4422 14.5234 3.61693L3.40128 15.7258C2.49787 16.6693 2.03764 17.84 2.0206 19.2379C2.00355 20.6357 2.43821 21.7802 3.32457 22.6714C3.87003 23.248 4.47514 23.6848 5.13991 23.9818C5.80469 24.2789 6.5206 24.375 7.28764 24.2702C8.05469 24.1653 8.7365 23.8071 9.3331 23.1956L24.0348 7.20766C24.6655 6.56115 24.9808 5.7836 24.9808 4.875C24.9808 3.96639 24.6655 3.18884 24.0348 2.54234C23.745 2.24529 23.4297 2.02251 23.0888 1.87399C22.7479 1.72547 22.3899 1.66868 22.0149 1.70363C21.2649 1.73857 20.5661 2.09677 19.9183 2.77822L8.23366 15.5161C8.14844 15.6035 8.06747 15.6952 7.99077 15.7913C7.91406 15.8874 7.8331 16.001 7.74787 16.1321C7.66264 16.2631 7.59446 16.4029 7.54332 16.5514C7.49219 16.6999 7.4581 16.8484 7.44105 16.997C7.424 17.1455 7.44957 17.2984 7.51775 17.4556C7.58594 17.6129 7.68821 17.7614 7.82457 17.9012C8.14844 18.2507 8.46378 18.4079 8.7706 18.373C9.09446 18.338 9.46094 18.1196 9.87003 17.7177L18.6655 8.125C18.7678 8.02016 18.8871 7.9459 19.0234 7.90222C19.1598 7.85853 19.3004 7.85416 19.4453 7.88911C19.5902 7.92406 19.7138 7.99395 19.8161 8.09879C19.9865 8.25605 20.0717 8.44825 20.0717 8.6754C20.0717 8.90255 19.995 9.10349 19.8416 9.27822L11.0462 18.8972C10.3473 19.5961 9.63991 19.9805 8.924 20.0504C8.10582 20.1203 7.35582 19.8058 6.674 19.1069C6.02628 18.4603 5.74077 17.7003 5.81747 16.8266C5.89418 15.953 6.30753 15.1317 7.05753 14.3629L18.7422 1.59879C19.6967 0.620292 20.7621 0.0960993 21.9382 0.0262066C21.9723 0.0262066 22.0107 0.0218387 22.0533 0.0131012C22.0959 0.00436553 22.1342 -2.29926e-06 22.1683 -2.29628e-06Z" fill="#EC0000"/>
</svg>
